<?xml version="1.0" encoding="UTF-8" standalone="no"?>
<!-- Created with Inkscape (http://www.inkscape.org/) -->

<svg
   width="210mm"
   height="297mm"
   viewBox="0 0 210 297"
   version="1.1"
   id="svg5"
   inkscape:version="1.2.2 (b0a8486541, 2022-12-01)"
   sodipodi:docname="granularity.svg"
   xmlns:inkscape="http://www.inkscape.org/namespaces/inkscape"
   xmlns:sodipodi="http://sodipodi.sourceforge.net/DTD/sodipodi-0.dtd"
   xmlns="http://www.w3.org/2000/svg"
   xmlns:svg="http://www.w3.org/2000/svg">
  <sodipodi:namedview
     id="namedview7"
     pagecolor="#ffffff"
     bordercolor="#eeeeee"
     borderopacity="1"
     inkscape:showpageshadow="0"
     inkscape:pageopacity="0"
     inkscape:pagecheckerboard="0"
     inkscape:deskcolor="#505050"
     inkscape:document-units="mm"
     showgrid="false"
     inkscape:zoom="1.5055415"
     inkscape:cx="334.76327"
     inkscape:cy="320.8148"
     inkscape:window-width="1920"
     inkscape:window-height="1011"
     inkscape:window-x="0"
     inkscape:window-y="32"
     inkscape:window-maximized="1"
     inkscape:current-layer="text4972-3" />
  <defs
     id="defs2">
    <inkscape:perspective
       sodipodi:type="inkscape:persp3d"
       inkscape:vp_x="0 : 148.5 : 1"
       inkscape:vp_y="0 : 1000 : 0"
       inkscape:vp_z="210 : 148.5 : 1"
       inkscape:persp3d-origin="105 : 99 : 1"
       id="perspective240" />
  </defs>
  <g
     inkscape:label="Layer 1"
     inkscape:groupmode="layer"
     id="layer1">
    <g
       id="g2947">
      <rect
         style="fill:#ffffff;fill-opacity:1;stroke:#000000;stroke-width:0.165;stroke-dasharray:none;stroke-dashoffset:0;stroke-opacity:1"
         id="rect2920"
         width="14.402071"
         height="14.80007"
         x="56.018188"
         y="80.998444"
         ry="0" />
      <rect
         style="fill:#ffffff;fill-opacity:1;stroke:#000000;stroke-width:0.165;stroke-dasharray:none;stroke-dashoffset:0;stroke-opacity:1"
         id="rect2922"
         width="14.402071"
         height="14.80007"
         x="56.018188"
         y="66.181763"
         ry="0" />
      <rect
         style="fill:#ffffff;fill-opacity:1;stroke:#000000;stroke-width:0.165;stroke-dasharray:none;stroke-dashoffset:0;stroke-opacity:1"
         id="rect2924"
         width="14.402071"
         height="14.80007"
         x="70.305702"
         y="66.181763"
         ry="0" />
      <rect
         style="fill:#ffffff;fill-opacity:1;stroke:#000000;stroke-width:0.165;stroke-dasharray:none;stroke-dashoffset:0;stroke-opacity:1"
         id="rect2926"
         width="14.402071"
         height="14.80007"
         x="70.305702"
         y="80.998444"
         ry="0" />
      <rect
         style="fill:#ffffff;fill-opacity:1;stroke:#000000;stroke-width:0.165;stroke-dasharray:none;stroke-dashoffset:0;stroke-opacity:1"
         id="rect2928"
         width="14.402071"
         height="14.80007"
         x="41.730675"
         y="80.998444"
         ry="0" />
      <rect
         style="fill:#ffffff;fill-opacity:1;stroke:#000000;stroke-width:0.165;stroke-dasharray:none;stroke-dashoffset:0;stroke-opacity:1"
         id="rect2930"
         width="14.402071"
         height="14.80007"
         x="41.730675"
         y="66.181763"
         ry="0" />
      <rect
         style="fill:#ffffff;fill-opacity:1;stroke:#000000;stroke-width:0.165;stroke-dasharray:none;stroke-dashoffset:0;stroke-opacity:1"
         id="rect2932"
         width="14.402071"
         height="14.80007"
         x="56.018188"
         y="95.815125"
         ry="0" />
      <rect
         style="fill:#ffffff;fill-opacity:1;stroke:#000000;stroke-width:0.165;stroke-dasharray:none;stroke-dashoffset:0;stroke-opacity:1"
         id="rect2934"
         width="14.402071"
         height="14.80007"
         x="70.305702"
         y="95.815125"
         ry="0" />
      <rect
         style="fill:#ffffff;fill-opacity:1;stroke:#000000;stroke-width:0.165;stroke-dasharray:none;stroke-dashoffset:0;stroke-opacity:1"
         id="rect2936"
         width="14.402071"
         height="14.80007"
         x="41.730675"
         y="95.815125"
         ry="0" />
    </g>
    <rect
       style="fill:#ffffff;fill-opacity:1;stroke:#000000;stroke-width:0.465;stroke-dasharray:0.465,1.39500001;stroke-opacity:1;stroke-dashoffset:0"
       id="rect1504"
       width="30.485508"
       height="30.485508"
       x="131.27113"
       y="29.451202" />
    <rect
       style="fill:none;stroke-width:0.465;fill-opacity:1;stroke:#000000;stroke-opacity:1;stroke-dasharray:none"
       id="rect322"
       width="30.485508"
       height="30.485508"
       x="120.68787"
       y="38.447044" />
    <path
       style="fill:#ffffff;fill-opacity:1;stroke:#000000;stroke-width:0.465;stroke-dasharray:0.465,1.39500001;stroke-opacity:1;stroke-dashoffset:0"
       d="m 131.27113,59.93671 h 30.48551"
       id="path1571" />
    <path
       style="fill:#ffffff;fill-opacity:1;stroke:#000000;stroke-width:0.465;stroke-dasharray:0.465, 1.395;stroke-dashoffset:0;stroke-opacity:1"
       d="m 131.27113,59.93671 -10.58326,8.995846"
       id="path1627" />
    <path
       style="fill:#ffffff;fill-opacity:1;stroke:#000000;stroke-width:0.465;stroke-dasharray:none;stroke-dashoffset:0;stroke-opacity:1"
       d="m 120.68787,38.447043 10.58326,-8.995841"
       id="path1629" />
    <path
       style="fill:#ffffff;fill-opacity:1;stroke:#000000;stroke-width:0.465;stroke-dasharray:none;stroke-dashoffset:0;stroke-opacity:1"
       d="m 161.75664,59.93671 -10.58327,8.995846"
       id="path1631" />
    <path
       style="fill:#ffffff;fill-opacity:1;stroke:#000000;stroke-width:0.465;stroke-dasharray:none;stroke-dashoffset:0;stroke-opacity:1"
       d="m 151.17337,38.447043 10.58327,-8.995841"
       id="path1633" />
    <path
       style="fill:#ffffff;fill-opacity:1;stroke:#fe34e1;stroke-width:0.465;stroke-dasharray:none;stroke-dashoffset:0;stroke-opacity:1"
       d="m 131.27113,29.451202 19.90224,39.481354"
       id="path1635" />
    <path
       style="fill:#ffffff;fill-opacity:1;stroke:#000000;stroke-width:0.465;stroke-dasharray:none;stroke-dashoffset:0;stroke-opacity:1"
       d="m 120.68787,38.447043 h 30.4855"
       id="path1637" />
    <path
       style="fill:#ffffff;fill-opacity:1;stroke:#000000;stroke-width:0.465;stroke-dasharray:none;stroke-dashoffset:0;stroke-opacity:1"
       d="m 131.27113,29.451202 h 30.48551"
       id="path1755" />
    <path
       style="fill:#ffffff;fill-opacity:1;stroke:#000000;stroke-width:0.465;stroke-dasharray:none;stroke-dashoffset:0;stroke-opacity:1"
       d="M 161.75664,29.451202 V 59.93671"
       id="path2009" />
    <g
       id="g2862"
       transform="rotate(-25.052702,64.938133,100.98369)">
      <path
         sodipodi:type="star"
         style="fill:#686868;fill-opacity:1;stroke:#000000;stroke-width:0.465;stroke-dasharray:none;stroke-dashoffset:0;stroke-opacity:1"
         id="path2858"
         inkscape:flatsided="false"
         sodipodi:sides="3"
         sodipodi:cx="34.359764"
         sodipodi:cy="89.088005"
         sodipodi:r1="6.5668836"
         sodipodi:r2="3.2834418"
         sodipodi:arg1="3.1415927"
         sodipodi:arg2="4.1887902"
         inkscape:rounded="0"
         inkscape:randomized="0"
         d="m 27.792881,89.088005 4.925162,-2.843544 4.925163,-2.843544 0,5.687088 0,5.687088 -4.925163,-2.843544 z"
         inkscape:transform-center-x="1.6417214"
         inkscape:transform-center-y="-1.1223685e-06"
         transform="translate(1.5875)" />
      <rect
         style="fill:#686868;fill-opacity:1;stroke:#000000;stroke-width:0.465;stroke-dasharray:none;stroke-dashoffset:0;stroke-opacity:1"
         id="rect2737"
         width="20.513613"
         height="13.390827"
         x="13.846153"
         y="82.392593"
         ry="4.2736678" />
    </g>
    <path
       style="fill:#686868;fill-opacity:1;stroke:#a0a0a0;stroke-width:0.465;stroke-dasharray:0.465,2.79000002;stroke-dashoffset:0;stroke-opacity:1"
       d="M 34.203838,95.940982 131.27113,29.451202"
       id="path2864" />
    <path
       style="fill:#d7d7d7;fill-opacity:1;stroke:#a0a0a0;stroke-width:0.465;stroke-dasharray:0.465,2.79000002;stroke-dashoffset:0;stroke-opacity:1"
       d="M 39.020252,106.24506 151.17337,68.932556"
       id="path2866" />
    <path
       style="fill:#ffffff;fill-opacity:1;stroke:#000000;stroke-width:0.165;stroke-dasharray:none;stroke-dashoffset:0;stroke-opacity:1"
       d="M 63.219223,66.181763 V 110.61519"
       id="path2949" />
    <path
       style="fill:#ffffff;fill-opacity:1;stroke:#000000;stroke-width:0.165;stroke-dasharray:none;stroke-dashoffset:0;stroke-opacity:1"
       d="M 48.931708,66.181763 V 110.61519"
       id="path2951" />
    <path
       style="fill:#ffffff;fill-opacity:1;stroke:#000000;stroke-width:0.165;stroke-dasharray:none;stroke-dashoffset:0;stroke-opacity:1"
       d="M 77.506736,66.181763 V 110.61519"
       id="path2953" />
    <path
       style="fill:#ffffff;fill-opacity:1;stroke:#000000;stroke-width:0.165;stroke-dasharray:none;stroke-dashoffset:0;stroke-opacity:1"
       d="M 41.730675,73.581799 H 84.707771"
       id="path2955" />
    <path
       style="fill:#ffffff;fill-opacity:1;stroke:#000000;stroke-width:0.165;stroke-dasharray:none;stroke-dashoffset:0;stroke-opacity:1"
       d="M 41.730675,88.398479 H 84.707771"
       id="path2957" />
    <path
       style="fill:#ffffff;fill-opacity:1;stroke:#000000;stroke-width:0.165;stroke-dasharray:none;stroke-dashoffset:0;stroke-opacity:1"
       d="M 41.730675,103.21516 H 84.707771"
       id="path2959" />
    <path
       style="fill:#ffffff;fill-opacity:1;stroke:#ff0004;stroke-width:0.465;stroke-dasharray:none;stroke-dashoffset:0;stroke-opacity:1"
       d="m 56.018189,80.981832 14.402067,14.83329"
       id="path2961" />
    <g
       aria-label="Evaluated node"
       id="text4972"
       style="font-size:4.9389px;fill:#ffffff;stroke:#ff0004;stroke-width:0.165">
      <path
         d="m 165.79383,45.313488 h -1.97063 v -3.526375 h 1.97063 v 0.390174 h -1.52612 v 1.101374 h 1.43722 v 0.385234 h -1.43722 v 1.25942 h 1.52612 z"
         style="fill:#000000;stroke:#000000"
         id="path361" />
      <path
         d="m 167.09276,45.313488 -1.0026,-2.64725 h 0.46426 l 0.56303,1.560692 q 0.0395,0.108656 0.084,0.242006 0.0444,0.13335 0.079,0.256823 0.0346,0.118534 0.0494,0.202495 h 0.0198 q 0.0197,-0.08396 0.0543,-0.207434 0.0395,-0.123472 0.084,-0.256823 0.0494,-0.13335 0.084,-0.237067 l 0.56303,-1.560692 h 0.46426 l -1.00754,2.64725 z"
         style="fill:#000000;stroke:#000000"
         id="path363" />
      <path
         d="m 170.02152,42.621788 q 0.48401,0 0.71614,0.212372 0.23213,0.212373 0.23213,0.67663 v 1.802698 h -0.31609 l -0.084,-0.375356 h -0.0198 q -0.17286,0.217311 -0.36548,0.321028 -0.18767,0.103717 -0.52352,0.103717 -0.36054,0 -0.59761,-0.187678 -0.23706,-0.192617 -0.23706,-0.597607 0,-0.395112 0.31115,-0.607485 0.31115,-0.217311 0.95814,-0.237067 l 0.44944,-0.01482 v -0.158044 q 0,-0.330907 -0.14322,-0.459318 -0.14323,-0.128412 -0.40499,-0.128412 -0.20744,0 -0.39512,0.06421 -0.18767,0.05927 -0.35066,0.138289 l -0.13335,-0.325967 q 0.17286,-0.09384 0.40993,-0.158045 0.23707,-0.06914 0.49389,-0.06914 z m 0.12841,1.412525 q -0.49389,0.01976 -0.68651,0.158045 -0.18767,0.138289 -0.18767,0.390173 0,0.22225 0.13335,0.325967 0.13829,0.103717 0.35066,0.103717 0.33584,0 0.55809,-0.182739 0.22225,-0.187678 0.22225,-0.572913 v -0.237067 z"
         style="fill:#000000;stroke:#000000"
         id="path365" />
      <path
         d="m 172.22427,45.313488 h -0.43462 v -3.753564 h 0.43462 z"
         style="fill:#000000;stroke:#000000"
         id="path367" />
      <path
         d="m 175.27651,42.666238 v 2.64725 h -0.3556 l -0.0642,-0.350662 h -0.0197 q -0.12841,0.207434 -0.3556,0.306212 -0.22719,0.09384 -0.48401,0.09384 -0.47908,0 -0.72108,-0.227189 -0.24201,-0.232129 -0.24201,-0.735896 v -1.733554 h 0.43956 v 1.70392 q 0,0.632179 0.58773,0.632179 0.43956,0 0.60749,-0.246945 0.17286,-0.246945 0.17286,-0.711201 v -1.377953 z"
         style="fill:#000000;stroke:#000000"
         id="path369" />
      <path
         d="m 177.11872,42.621788 q 0.48401,0 0.71614,0.212372 0.23213,0.212373 0.23213,0.67663 v 1.802698 h -0.31609 l -0.084,-0.375356 h -0.0198 q -0.17286,0.217311 -0.36548,0.321028 -0.18767,0.103717 -0.52352,0.103717 -0.36054,0 -0.59761,-0.187678 -0.23706,-0.192617 -0.23706,-0.597607 0,-0.395112 0.31115,-0.607485 0.31115,-0.217311 0.95814,-0.237067 l 0.44944,-0.01482 v -0.158044 q 0,-0.330907 -0.14322,-0.459318 -0.14323,-0.128412 -0.40499,-0.128412 -0.20744,0 -0.39512,0.06421 -0.18767,0.05927 -0.35066,0.138289 l -0.13335,-0.325967 q 0.17286,-0.09384 0.40993,-0.158045 0.23707,-0.06914 0.49389,-0.06914 z m 0.12841,1.412525 q -0.49389,0.01976 -0.6865,0.158045 -0.18768,0.138289 -0.18768,0.390173 0,0.22225 0.13335,0.325967 0.13829,0.103717 0.35066,0.103717 0.33584,0 0.55809,-0.182739 0.22226,-0.187678 0.22226,-0.572913 v -0.237067 z"
         style="fill:#000000;stroke:#000000"
         id="path371" />
      <path
         d="m 179.77091,45.007276 q 0.0988,0 0.2025,-0.01482 0.10372,-0.01976 0.16792,-0.03951 v 0.330907 q -0.0691,0.03457 -0.19755,0.05433 -0.12842,0.02469 -0.24695,0.02469 -0.20743,0 -0.38523,-0.06914 -0.17286,-0.07408 -0.28152,-0.251883 -0.10866,-0.177801 -0.10866,-0.498829 v -1.540937 h -0.37535 v -0.207434 l 0.38029,-0.172861 0.17286,-0.563035 h 0.25683 v 0.607485 h 0.76553 v 0.335845 h -0.76553 v 1.531059 q 0,0.242006 0.11359,0.36054 0.11854,0.113594 0.30127,0.113594 z"
         style="fill:#000000;stroke:#000000"
         id="path373" />
      <path
         d="m 181.69215,42.616849 q 0.34078,0 0.58279,0.148167 0.24694,0.148167 0.37535,0.419806 0.13335,0.266701 0.13335,0.62724 v 0.261762 h -1.81257 q 0.01,0.44944 0.22719,0.686507 0.22225,0.232129 0.61736,0.232129 0.25188,0 0.4445,-0.04445 0.19756,-0.04939 0.40499,-0.138289 v 0.380296 q -0.20249,0.0889 -0.40005,0.128411 -0.19756,0.04445 -0.4692,0.04445 -0.37535,0 -0.66675,-0.153106 -0.28645,-0.153106 -0.44944,-0.454379 -0.15804,-0.306211 -0.15804,-0.745774 0,-0.434623 0.14323,-0.745773 0.14816,-0.311151 0.40992,-0.479074 0.26671,-0.167922 0.61737,-0.167922 z m -0.005,0.3556 q -0.31115,0 -0.49389,0.202495 -0.1778,0.197556 -0.21237,0.553157 h 1.34832 q -0.005,-0.335845 -0.15805,-0.543279 -0.15311,-0.212373 -0.48401,-0.212373 z"
         style="fill:#000000;stroke:#000000"
         id="path375" />
      <path
         d="m 184.39372,45.362877 q -0.49389,0 -0.79022,-0.340784 -0.29634,-0.345723 -0.29634,-1.027291 0,-0.681568 0.29634,-1.027291 0.30127,-0.350662 0.79516,-0.350662 0.30621,0 0.49883,0.113594 0.19755,0.113595 0.32103,0.276579 h 0.0296 q -0.005,-0.06421 -0.0198,-0.187678 -0.01,-0.128412 -0.01,-0.202495 v -1.056925 h 0.43462 v 3.753564 h -0.35066 l -0.0642,-0.355601 h -0.0197 q -0.11854,0.167923 -0.31609,0.286456 -0.19756,0.118534 -0.50871,0.118534 z m 0.0691,-0.36054 q 0.41981,0 0.58773,-0.227189 0.17287,-0.232128 0.17287,-0.696385 v -0.07902 q 0,-0.49389 -0.16299,-0.755652 -0.16298,-0.266701 -0.60254,-0.266701 -0.35067,0 -0.52847,0.281518 -0.17286,0.276578 -0.17286,0.745774 0,0.474134 0.17286,0.735896 0.1778,0.261761 0.5334,0.261761 z"
         style="fill:#000000;stroke:#000000"
         id="path377" />
      <path
         d="m 189.0511,42.616849 q 0.47414,0 0.71614,0.232128 0.24201,0.227189 0.24201,0.740835 v 1.723676 h -0.42968 v -1.694043 q 0,-0.637118 -0.59267,-0.637118 -0.43956,0 -0.60749,0.246945 -0.16792,0.246945 -0.16792,0.711202 v 1.373014 h -0.43462 v -2.64725 h 0.35066 l 0.0642,0.360539 h 0.0247 q 0.12841,-0.207433 0.3556,-0.306211 0.22719,-0.103717 0.47907,-0.103717 z"
         style="fill:#000000;stroke:#000000"
         id="path379" />
      <path
         d="m 193.13064,43.984924 q 0,0.656874 -0.33585,1.017413 -0.33091,0.36054 -0.89888,0.36054 -0.35066,0 -0.62724,-0.158045 -0.27164,-0.162983 -0.42968,-0.469195 -0.15805,-0.311151 -0.15805,-0.750713 0,-0.656874 0.33091,-1.012475 0.3309,-0.3556 0.89888,-0.3556 0.36054,0 0.63218,0.162983 0.27657,0.158045 0.42968,0.464257 0.15805,0.301273 0.15805,0.740835 z m -2.00026,0 q 0,0.469195 0.18274,0.745774 0.18768,0.271639 0.59267,0.271639 0.40005,0 0.58773,-0.271639 0.18768,-0.276579 0.18768,-0.745774 0,-0.469196 -0.18768,-0.735896 -0.18768,-0.266701 -0.59267,-0.266701 -0.40499,0 -0.58773,0.266701 -0.18274,0.2667 -0.18274,0.735896 z"
         style="fill:#000000;stroke:#000000"
         id="path381" />
      <path
         d="m 194.75553,45.362877 q -0.49389,0 -0.79022,-0.340784 -0.29634,-0.345723 -0.29634,-1.027291 0,-0.681568 0.29634,-1.027291 0.30127,-0.350662 0.79516,-0.350662 0.30621,0 0.49883,0.113594 0.19755,0.113595 0.32103,0.276579 h 0.0296 q -0.005,-0.06421 -0.0198,-0.187678 -0.01,-0.128412 -0.01,-0.202495 v -1.056925 h 0.43462 v 3.753564 h -0.35066 l -0.0642,-0.355601 h -0.0197 q -0.11854,0.167923 -0.31609,0.286456 -0.19756,0.118534 -0.50871,0.118534 z m 0.0692,-0.36054 q 0.4198,0 0.58772,-0.227189 0.17287,-0.232128 0.17287,-0.696385 v -0.07902 q 0,-0.49389 -0.16299,-0.755652 -0.16298,-0.266701 -0.60254,-0.266701 -0.35067,0 -0.52847,0.281518 -0.17286,0.276578 -0.17286,0.745774 0,0.474134 0.17286,0.735896 0.1778,0.261761 0.53341,0.261761 z"
         style="fill:#000000;stroke:#000000"
         id="path383" />
      <path
         d="m 197.87692,42.616849 q 0.34078,0 0.58279,0.148167 0.24694,0.148167 0.37535,0.419806 0.13335,0.266701 0.13335,0.62724 v 0.261762 h -1.81257 q 0.01,0.44944 0.22719,0.686507 0.22225,0.232129 0.61736,0.232129 0.25188,0 0.4445,-0.04445 0.19756,-0.04939 0.40499,-0.138289 v 0.380296 q -0.2025,0.0889 -0.40005,0.128411 -0.19756,0.04445 -0.4692,0.04445 -0.37535,0 -0.66675,-0.153106 -0.28645,-0.153106 -0.44944,-0.454379 -0.15804,-0.306211 -0.15804,-0.745774 0,-0.434623 0.14322,-0.745773 0.14817,-0.311151 0.40993,-0.479074 0.2667,-0.167922 0.61737,-0.167922 z m -0.005,0.3556 q -0.31115,0 -0.49389,0.202495 -0.1778,0.197556 -0.21238,0.553157 h 1.34832 q -0.005,-0.335845 -0.15804,-0.543279 -0.15311,-0.212373 -0.48401,-0.212373 z"
         style="fill:#000000;stroke:#000000"
         id="path385" />
    </g>
    <g
       aria-label="Image plane"
       id="text4972-3"
       style="font-size:4.9389px;fill:#ffffff;stroke:#ff0004;stroke-width:0.165">
      <path
         d="m 50.709757,115.84055 h -1.274236 v -0.25682 l 0.414867,-0.0938 v -2.82011 l -0.414867,-0.0988 v -0.25682 h 1.274236 v 0.25682 l -0.414868,0.0988 v 2.82011 l 0.414868,0.0938 z"
         style="fill:#000000;stroke:#000000"
         id="path340" />
      <path
         d="m 54.236135,113.14391 q 0.44944,0 0.67169,0.23213 0.222251,0.22719 0.222251,0.74084 v 1.72367 h -0.429685 v -1.70392 q 0,-0.62724 -0.53834,-0.62724 -0.385234,0 -0.553156,0.22225 -0.162984,0.22225 -0.162984,0.647 v 1.46191 h -0.429684 v -1.70392 q 0,-0.62724 -0.543279,-0.62724 -0.400051,0 -0.553157,0.24695 -0.153106,0.24694 -0.153106,0.7112 v 1.37301 h -0.434623 v -2.64725 h 0.350662 l 0.06421,0.36054 h 0.0247 q 0.123472,-0.20743 0.330906,-0.30621 0.212373,-0.10372 0.44944,-0.10372 0.622301,0 0.80998,0.4445 h 0.02469 q 0.13335,-0.22718 0.36054,-0.33584 0.232128,-0.10866 0.488951,-0.10866 z"
         style="fill:#000000;stroke:#000000"
         id="path342" />
      <path
         d="m 56.952527,113.14885 q 0.484013,0 0.716141,0.21238 0.232128,0.21237 0.232128,0.67662 v 1.8027 h -0.316089 l -0.08396,-0.37535 h -0.01976 q -0.172862,0.21731 -0.365479,0.32103 -0.187678,0.10371 -0.523523,0.10371 -0.36054,0 -0.597607,-0.18768 -0.237067,-0.19261 -0.237067,-0.5976 0,-0.39511 0.31115,-0.60749 0.311151,-0.21731 0.958147,-0.23706 l 0.44944,-0.0148 v -0.15805 q 0,-0.3309 -0.143228,-0.45931 -0.143228,-0.12842 -0.40499,-0.12842 -0.207434,0 -0.395112,0.0642 -0.187678,0.0593 -0.350662,0.13829 l -0.13335,-0.32597 q 0.172861,-0.0938 0.409928,-0.15804 0.237068,-0.0692 0.49389,-0.0692 z m 0.128412,1.41253 q -0.49389,0.0198 -0.686507,0.15804 -0.187679,0.13829 -0.187679,0.39018 0,0.22225 0.133351,0.32596 0.138289,0.10372 0.350662,0.10372 0.335845,0 0.558095,-0.18274 0.222251,-0.18768 0.222251,-0.57291 v -0.23707 z"
         style="fill:#000000;stroke:#000000"
         id="path344" />
      <path
         d="m 59.659048,113.14391 q 0.261762,0 0.469196,0.0988 0.212373,0.0988 0.36054,0.30127 h 0.02469 l 0.05927,-0.35066 h 0.345723 v 2.6917 q 0,0.56798 -0.291395,0.85443 -0.286456,0.28646 -0.893941,0.28646 -0.58279,0 -0.953208,-0.16792 v -0.40005 q 0.390173,0.20743 0.977902,0.20743 0.340784,0 0.533402,-0.2025 0.197556,-0.19755 0.197556,-0.54327 v -0.10372 q 0,-0.0593 0.0049,-0.16792 0.0049,-0.1136 0.0099,-0.15805 h -0.01975 q -0.266701,0.40005 -0.819858,0.40005 -0.513645,0 -0.80504,-0.36054 -0.286457,-0.36054 -0.286457,-1.00753 0,-0.63218 0.286457,-1.0026 0.291395,-0.37536 0.800101,-0.37536 z m 0.05927,0.36548 q -0.330906,0 -0.513645,0.2667 -0.18274,0.26176 -0.18274,0.75072 0,0.48895 0.177801,0.75071 0.182739,0.25682 0.528462,0.25682 0.400051,0 0.58279,-0.21237 0.182739,-0.21731 0.182739,-0.69639 v -0.10371 q 0,-0.54328 -0.187678,-0.77541 -0.187678,-0.23707 -0.587729,-0.23707 z"
         style="fill:#000000;stroke:#000000"
         id="path346" />
      <path
         d="m 62.780432,113.14391 q 0.340784,0 0.58279,0.14817 0.246945,0.14817 0.375356,0.41981 0.133351,0.2667 0.133351,0.62724 v 0.26176 h -1.812577 q 0.0099,0.44944 0.22719,0.68651 0.22225,0.23212 0.617362,0.23212 0.251884,0 0.444501,-0.0444 0.197556,-0.0494 0.40499,-0.13828 v 0.38029 q -0.202495,0.0889 -0.400051,0.12841 -0.197556,0.0444 -0.469195,0.0444 -0.375357,0 -0.666752,-0.1531 -0.286456,-0.15311 -0.44944,-0.45438 -0.158044,-0.30621 -0.158044,-0.74578 0,-0.43462 0.143228,-0.74577 0.148167,-0.31115 0.409928,-0.47907 0.266701,-0.16793 0.617363,-0.16793 z m -0.0049,0.3556 q -0.311151,0 -0.49389,0.2025 -0.1778,0.19756 -0.212373,0.55316 h 1.34832 q -0.0049,-0.33585 -0.158045,-0.54328 -0.153106,-0.21238 -0.484012,-0.21238 z"
         style="fill:#000000;stroke:#000000"
         id="path348" />
      <path
         d="m 67.087151,113.14391 q 0.488951,0 0.785285,0.34079 0.301273,0.34078 0.301273,1.02729 0,0.67663 -0.301273,1.02729 -0.296334,0.35066 -0.790224,0.35066 -0.306212,0 -0.508707,-0.11359 -0.197556,-0.11854 -0.311151,-0.27164 h -0.02963 q 0.0099,0.084 0.01976,0.21237 0.0099,0.12841 0.0099,0.22225 v 1.08656 h -0.434623 v -3.83259 h 0.355601 l 0.05927,0.36054 h 0.01976 q 0.118534,-0.17286 0.311151,-0.29139 0.192617,-0.11854 0.513646,-0.11854 z m -0.07902,0.36548 q -0.40499,0 -0.572912,0.22719 -0.162984,0.22719 -0.172862,0.69145 v 0.084 q 0,0.48895 0.158045,0.75565 0.162984,0.26176 0.597607,0.26176 0.242006,0 0.395112,-0.13335 0.158045,-0.13335 0.232128,-0.36054 0.07902,-0.23213 0.07902,-0.52846 0,-0.45438 -0.177801,-0.72602 -0.172861,-0.27164 -0.53834,-0.27164 z"
         style="fill:#000000;stroke:#000000"
         id="path350" />
      <path
         d="m 69.299777,115.84055 h -0.434624 v -3.75356 h 0.434624 z"
         style="fill:#000000;stroke:#000000"
         id="path352" />
      <path
         d="m 71.141983,113.14885 q 0.484012,0 0.71614,0.21238 0.232129,0.21237 0.232129,0.67662 v 1.8027 h -0.31609 l -0.08396,-0.37535 h -0.01976 q -0.172861,0.21731 -0.365478,0.32103 -0.187679,0.10371 -0.523524,0.10371 -0.36054,0 -0.597607,-0.18768 -0.237067,-0.19261 -0.237067,-0.5976 0,-0.39511 0.311151,-0.60749 0.31115,-0.21731 0.958146,-0.23706 l 0.44944,-0.0148 v -0.15805 q 0,-0.3309 -0.143228,-0.45931 -0.143228,-0.12842 -0.40499,-0.12842 -0.207433,0 -0.395112,0.0642 -0.187678,0.0593 -0.350662,0.13829 l -0.13335,-0.32597 q 0.172862,-0.0938 0.409929,-0.15804 0.237067,-0.0692 0.49389,-0.0692 z m 0.128411,1.41253 q -0.49389,0.0198 -0.686507,0.15804 -0.187678,0.13829 -0.187678,0.39018 0,0.22225 0.13335,0.32596 0.138289,0.10372 0.350662,0.10372 0.335845,0 0.558096,-0.18274 0.22225,-0.18768 0.22225,-0.57291 v -0.23707 z"
         style="fill:#000000;stroke:#000000"
         id="path354" />
      <path
         d="m 74.18435,113.14391 q 0.474134,0 0.71614,0.23213 0.242006,0.22719 0.242006,0.74084 v 1.72367 h -0.429684 v -1.69404 q 0,-0.63712 -0.592668,-0.63712 -0.439562,0 -0.607485,0.24695 -0.167922,0.24694 -0.167922,0.7112 v 1.37301 h -0.434624 v -2.64725 h 0.350662 l 0.06421,0.36054 h 0.02469 q 0.128412,-0.20743 0.355601,-0.30621 0.22719,-0.10372 0.479074,-0.10372 z"
         style="fill:#000000;stroke:#000000"
         id="path356" />
      <path
         d="m 76.984706,113.14391 q 0.340784,0 0.58279,0.14817 0.246945,0.14817 0.375357,0.41981 0.13335,0.2667 0.13335,0.62724 v 0.26176 h -1.812576 q 0.0099,0.44944 0.227189,0.68651 0.222251,0.23212 0.617363,0.23212 0.251883,0 0.444501,-0.0444 0.197556,-0.0494 0.404989,-0.13828 v 0.38029 q -0.202495,0.0889 -0.400051,0.12841 -0.197556,0.0444 -0.469195,0.0444 -0.375356,0 -0.666752,-0.1531 -0.286456,-0.15311 -0.449439,-0.45438 -0.158045,-0.30621 -0.158045,-0.74578 0,-0.43462 0.143228,-0.74577 0.148167,-0.31115 0.409929,-0.47907 0.2667,-0.16793 0.617362,-0.16793 z m -0.0049,0.3556 q -0.311151,0 -0.49389,0.2025 -0.1778,0.19756 -0.212373,0.55316 h 1.34832 q -0.0049,-0.33585 -0.158045,-0.54328 -0.153106,-0.21238 -0.484012,-0.21238 z"
         style="fill:#000000;stroke:#000000"
         id="path358" />
    </g>
    <g
       aria-label="Camera"
       id="text5161"
       style="font-size:4.9389px;stroke:#000000;stroke-width:0.165">
      <path
         d="m 13.272332,118.52476 q -0.567973,0 -0.89394,0.38029 -0.325968,0.3803 -0.325968,1.04211 0,0.65688 0.301273,1.04211 0.306212,0.3803 0.913697,0.3803 0.232128,0 0.439562,-0.0395 0.207433,-0.0395 0.404989,-0.0988 v 0.38523 q -0.197556,0.0741 -0.409928,0.10866 -0.207434,0.0346 -0.498829,0.0346 -0.53834,0 -0.89888,-0.22225 -0.36054,-0.22225 -0.543279,-0.63218 -0.1778,-0.40993 -0.1778,-0.96309 0,-0.5334 0.192617,-0.93839 0.197556,-0.40993 0.577851,-0.63712 0.380295,-0.23212 0.923574,-0.23212 0.558096,0 0.972964,0.20743 l -0.177801,0.37536 q -0.162983,-0.0741 -0.365478,-0.13335 -0.197556,-0.0593 -0.434624,-0.0593 z"
         id="path327" />
      <path
         d="m 15.825744,119.01865 q 0.484012,0 0.71614,0.21237 0.232128,0.21237 0.232128,0.67663 v 1.8027 h -0.316089 l -0.08396,-0.37536 h -0.01975 q -0.172862,0.21732 -0.365479,0.32103 -0.187678,0.10372 -0.523523,0.10372 -0.36054,0 -0.597607,-0.18768 -0.237067,-0.19262 -0.237067,-0.59761 0,-0.39511 0.31115,-0.60748 0.311151,-0.21731 0.958147,-0.23707 l 0.44944,-0.0148 v -0.15805 q 0,-0.33091 -0.143228,-0.45932 -0.143228,-0.12841 -0.40499,-0.12841 -0.207434,0 -0.395112,0.0642 -0.187678,0.0593 -0.350662,0.13829 l -0.13335,-0.32597 q 0.172861,-0.0938 0.409929,-0.15805 0.237067,-0.0691 0.49389,-0.0691 z m 0.128411,1.41252 q -0.49389,0.0198 -0.686507,0.15805 -0.187678,0.13829 -0.187678,0.39017 0,0.22225 0.13335,0.32597 0.138289,0.10372 0.350662,0.10372 0.335845,0 0.558096,-0.18274 0.22225,-0.18768 0.22225,-0.57291 v -0.23707 z"
         id="path329" />
      <path
         d="m 20.497947,119.01371 q 0.44944,0 0.671691,0.23213 0.22225,0.22719 0.22225,0.74083 v 1.72368 h -0.429684 v -1.70392 q 0,-0.62724 -0.53834,-0.62724 -0.385235,0 -0.553157,0.22225 -0.162984,0.22225 -0.162984,0.647 v 1.46191 h -0.429684 v -1.70392 q 0,-0.62724 -0.543279,-0.62724 -0.400051,0 -0.553157,0.24694 -0.153106,0.24695 -0.153106,0.71121 v 1.37301 h -0.434623 v -2.64725 h 0.350662 l 0.06421,0.36054 h 0.02469 q 0.123473,-0.20743 0.330906,-0.30621 0.212373,-0.10372 0.44944,-0.10372 0.622302,0 0.80998,0.4445 h 0.02469 q 0.133351,-0.22719 0.36054,-0.33584 0.232128,-0.10866 0.488951,-0.10866 z"
         id="path331" />
      <path
         d="m 23.234095,119.01371 q 0.340784,0 0.58279,0.14817 0.246945,0.14816 0.375356,0.4198 0.133351,0.2667 0.133351,0.62724 v 0.26177 h -1.812577 q 0.0099,0.44944 0.22719,0.6865 0.22225,0.23213 0.617362,0.23213 0.251884,0 0.444501,-0.0444 0.197556,-0.0494 0.40499,-0.13829 v 0.3803 q -0.202495,0.0889 -0.400051,0.12841 -0.197556,0.0444 -0.469195,0.0444 -0.375357,0 -0.666752,-0.15311 -0.286456,-0.1531 -0.44944,-0.45438 -0.158045,-0.30621 -0.158045,-0.74577 0,-0.43462 0.143229,-0.74577 0.148167,-0.31115 0.409928,-0.47908 0.266701,-0.16792 0.617363,-0.16792 z m -0.0049,0.3556 q -0.311151,0 -0.49389,0.2025 -0.177801,0.19755 -0.212373,0.55315 h 1.34832 q -0.0049,-0.33584 -0.158045,-0.54328 -0.153106,-0.21237 -0.484012,-0.21237 z"
         id="path333" />
      <path
         d="m 26.232003,119.01371 q 0.07408,0 0.158045,0.01 0.0889,0.005 0.153106,0.0198 l -0.05433,0.40005 q -0.06421,-0.0148 -0.143228,-0.0247 -0.07408,-0.01 -0.143228,-0.01 -0.202495,0 -0.380295,0.1136 -0.177801,0.10865 -0.286457,0.31115 -0.103717,0.19755 -0.103717,0.46425 v 1.41253 h -0.434623 v -2.64725 h 0.355601 l 0.04939,0.48401 h 0.01976 q 0.128411,-0.21731 0.330906,-0.37535 0.202495,-0.15805 0.479073,-0.15805 z"
         id="path335" />
      <path
         d="m 27.940861,119.01865 q 0.484012,0 0.71614,0.21237 0.232128,0.21237 0.232128,0.67663 v 1.8027 H 28.57304 l -0.08396,-0.37536 h -0.01976 q -0.172862,0.21732 -0.365479,0.32103 -0.187678,0.10372 -0.523523,0.10372 -0.36054,0 -0.597607,-0.18768 -0.237067,-0.19262 -0.237067,-0.59761 0,-0.39511 0.311151,-0.60748 0.31115,-0.21731 0.958146,-0.23707 l 0.44944,-0.0148 v -0.15805 q 0,-0.33091 -0.143228,-0.45932 -0.143228,-0.12841 -0.40499,-0.12841 -0.207434,0 -0.395112,0.0642 -0.187678,0.0593 -0.350662,0.13829 l -0.13335,-0.32597 q 0.172861,-0.0938 0.409929,-0.15805 0.237067,-0.0691 0.49389,-0.0691 z m 0.128411,1.41252 q -0.49389,0.0198 -0.686507,0.15805 -0.187678,0.13829 -0.187678,0.39017 0,0.22225 0.13335,0.32597 0.138289,0.10372 0.350662,0.10372 0.335845,0 0.558096,-0.18274 0.22225,-0.18768 0.22225,-0.57291 v -0.23707 z"
         id="path337" />
    </g>
  </g>
</svg>
