<?xml version="1.0" encoding="utf-8" standalone="no"?>
<!DOCTYPE svg PUBLIC "-//W3C//DTD SVG 1.1//EN"
  "http://www.w3.org/Graphics/SVG/1.1/DTD/svg11.dtd">
<svg xmlns:xlink="http://www.w3.org/1999/xlink" width="460.8pt" height="345.6pt" viewBox="0 0 460.8 345.6" xmlns="http://www.w3.org/2000/svg" version="1.1">
 <metadata>
  <rdf:RDF xmlns:dc="http://purl.org/dc/elements/1.1/" xmlns:cc="http://creativecommons.org/ns#" xmlns:rdf="http://www.w3.org/1999/02/22-rdf-syntax-ns#">
   <cc:Work>
    <dc:type rdf:resource="http://purl.org/dc/dcmitype/StillImage"/>
    <dc:date>2024-09-06T09:10:50.907948</dc:date>
    <dc:format>image/svg+xml</dc:format>
    <dc:creator>
     <cc:Agent>
      <dc:title>Matplotlib v3.7.1, https://matplotlib.org/</dc:title>
     </cc:Agent>
    </dc:creator>
   </cc:Work>
  </rdf:RDF>
 </metadata>
 <defs>
  <style type="text/css">*{stroke-linejoin: round; stroke-linecap: butt}</style>
 </defs>
 <g id="figure_1">
  <g id="patch_1">
   <path d="M 0 345.6 
L 460.8 345.6 
L 460.8 0 
L 0 0 
z
" style="fill: #ffffff"/>
  </g>
  <g id="axes_1">
   <g id="line2d_1">
    <path d="M 73.832727 295.452715 
L 86.831908 295.273125 
L 93.981458 294.961995 
L 99.18113 294.522571 
L 103.405864 293.949127 
L 106.980639 293.247858 
L 110.230434 292.383744 
L 113.15525 291.375293 
L 115.755086 290.258302 
L 118.354922 288.898825 
L 120.954758 287.261888 
L 123.229615 285.574154 
L 125.504472 283.623739 
L 127.779328 281.388813 
L 130.054185 278.849778 
L 132.329042 275.990241 
L 134.603898 272.798031 
L 137.203735 268.733832 
L 139.803571 264.225993 
L 142.403407 259.286506 
L 145.328223 253.246039 
L 148.578018 246.00373 
L 152.477772 236.733687 
L 158.977363 220.576482 
L 164.177035 207.874647 
L 167.75181 199.714738 
L 170.676626 193.581002 
L 172.301523 190.428947 
L 172.626503 190.305063 
L 245.746896 190.305063 
L 246.071876 190.735281 
L 248.671712 195.899826 
L 251.596527 202.241114 
L 255.171302 210.589205 
L 260.370975 223.418466 
L 267.845504 241.820785 
L 271.420278 250.050514 
L 274.670074 256.995771 
L 277.594889 262.727849 
L 280.194726 267.372483 
L 282.794562 271.575835 
L 285.394398 275.334524 
L 287.669255 278.264487 
L 289.944111 280.87095 
L 292.218968 283.169486 
L 294.493825 285.179091 
L 296.768681 286.921197 
L 299.368518 288.614102 
L 301.968354 290.022911 
L 304.56819 291.182758 
L 307.493006 292.232103 
L 310.417821 293.054216 
L 313.667617 293.750557 
L 317.567371 294.350354 
L 322.117084 294.811818 
L 327.641736 295.141896 
L 335.441245 295.362752 
L 348.440426 295.468865 
L 393.61258 295.487997 
L 398.487273 295.488 
L 398.487273 295.488 
" clip-path="url(#pf145e6d302)" style="fill: none; stroke: #7f00ff; stroke-width: 4; stroke-linecap: square"/>
   </g>
   <g id="line2d_2">
    <path d="M 73.832727 190.305063 
L 398.487273 190.305063 
L 398.487273 190.305063 
" clip-path="url(#pf145e6d302)" style="fill: none; stroke-dasharray: 2,3.3; stroke-dashoffset: 0; stroke: #bbbbbb; stroke-width: 2"/>
   </g>
   <g id="line2d_3">
    <path d="M 73.832727 295.44691 
L 87.806847 295.262881 
L 95.606355 294.951338 
L 101.455987 294.496671 
L 106.0057 293.925712 
L 109.905455 293.216593 
L 113.15525 292.419309 
L 116.080066 291.499359 
L 119.004881 290.34553 
L 121.604717 289.08625 
L 124.204554 287.569542 
L 126.47941 286.000426 
L 128.754267 284.176052 
L 131.029124 282.066924 
L 133.30398 279.642536 
L 135.578837 276.871832 
L 137.853694 273.723771 
L 140.12855 270.167983 
L 142.403407 266.175532 
L 144.678264 261.719756 
L 146.95312 256.777189 
L 149.227977 251.32854 
L 151.827813 244.464006 
L 154.427649 236.909249 
L 157.027486 228.665809 
L 159.952301 218.589145 
L 162.877117 207.708276 
L 166.126912 194.766885 
L 170.026667 178.255527 
L 175.226339 155.140898 
L 183.675807 117.477263 
L 187.250581 102.615536 
L 190.175397 91.386528 
L 192.775233 82.314964 
L 195.05009 75.209036 
L 196.999967 69.813627 
L 198.949844 65.118557 
L 200.574742 61.77635 
L 202.19964 58.978855 
L 203.499558 57.147029 
L 204.799476 55.685776 
L 206.099394 54.602063 
L 207.074333 54.040227 
L 208.049271 53.695229 
L 209.02421 53.568 
L 209.999148 53.658885 
L 210.974087 53.967637 
L 211.949025 54.493423 
L 212.923964 55.234823 
L 214.223882 56.55522 
L 215.5238 58.249009 
L 216.823718 60.308134 
L 218.448616 63.380804 
L 220.073514 66.986444 
L 221.698411 71.098873 
L 223.648288 76.660983 
L 225.923145 83.942757 
L 228.198002 91.983845 
L 230.797838 101.967031 
L 234.047633 115.391619 
L 238.272367 133.89992 
L 250.621589 188.686429 
L 254.196364 203.274731 
L 257.446159 215.644689 
L 260.370975 225.950593 
L 263.29579 235.41579 
L 265.895627 243.1002 
L 268.495463 250.093666 
L 271.095299 256.404982 
L 273.370156 261.383113 
L 275.645012 265.872926 
L 277.919869 269.89762 
L 280.194726 273.48366 
L 282.469582 276.659851 
L 284.744439 279.456483 
L 287.019296 281.904574 
L 289.294152 284.0352 
L 291.569009 285.878921 
L 293.843866 287.465319 
L 296.443702 288.99939 
L 299.043538 290.273667 
L 301.968354 291.441796 
L 304.89317 292.373618 
L 308.142965 293.181618 
L 311.71774 293.849598 
L 315.942473 294.41124 
L 321.142146 294.860445 
L 327.641736 295.179751 
L 336.741163 295.381486 
L 352.66516 295.47427 
L 398.487273 295.487992 
L 398.487273 295.487992 
" clip-path="url(#pf145e6d302)" style="fill: none; stroke-dasharray: 2,3.3; stroke-dashoffset: 0; stroke: #7f00ff; stroke-opacity: 0.6; stroke-width: 2"/>
   </g>
   <g id="text_1">
    <!-- Merged Model -->
    <g transform="translate(193.696875 35.472) scale(0.12 -0.12)">
     <defs>
      <path id="DejaVuSans-4d" d="M 628 4666 
L 1569 4666 
L 2759 1491 
L 3956 4666 
L 4897 4666 
L 4897 0 
L 4281 0 
L 4281 4097 
L 3078 897 
L 2444 897 
L 1241 4097 
L 1241 0 
L 628 0 
L 628 4666 
z
" transform="scale(0.015625)"/>
      <path id="DejaVuSans-65" d="M 3597 1894 
L 3597 1613 
L 953 1613 
Q 991 1019 1311 708 
Q 1631 397 2203 397 
Q 2534 397 2845 478 
Q 3156 559 3463 722 
L 3463 178 
Q 3153 47 2828 -22 
Q 2503 -91 2169 -91 
Q 1331 -91 842 396 
Q 353 884 353 1716 
Q 353 2575 817 3079 
Q 1281 3584 2069 3584 
Q 2775 3584 3186 3129 
Q 3597 2675 3597 1894 
z
M 3022 2063 
Q 3016 2534 2758 2815 
Q 2500 3097 2075 3097 
Q 1594 3097 1305 2825 
Q 1016 2553 972 2059 
L 3022 2063 
z
" transform="scale(0.015625)"/>
      <path id="DejaVuSans-72" d="M 2631 2963 
Q 2534 3019 2420 3045 
Q 2306 3072 2169 3072 
Q 1681 3072 1420 2755 
Q 1159 2438 1159 1844 
L 1159 0 
L 581 0 
L 581 3500 
L 1159 3500 
L 1159 2956 
Q 1341 3275 1631 3429 
Q 1922 3584 2338 3584 
Q 2397 3584 2469 3576 
Q 2541 3569 2628 3553 
L 2631 2963 
z
" transform="scale(0.015625)"/>
      <path id="DejaVuSans-67" d="M 2906 1791 
Q 2906 2416 2648 2759 
Q 2391 3103 1925 3103 
Q 1463 3103 1205 2759 
Q 947 2416 947 1791 
Q 947 1169 1205 825 
Q 1463 481 1925 481 
Q 2391 481 2648 825 
Q 2906 1169 2906 1791 
z
M 3481 434 
Q 3481 -459 3084 -895 
Q 2688 -1331 1869 -1331 
Q 1566 -1331 1297 -1286 
Q 1028 -1241 775 -1147 
L 775 -588 
Q 1028 -725 1275 -790 
Q 1522 -856 1778 -856 
Q 2344 -856 2625 -561 
Q 2906 -266 2906 331 
L 2906 616 
Q 2728 306 2450 153 
Q 2172 0 1784 0 
Q 1141 0 747 490 
Q 353 981 353 1791 
Q 353 2603 747 3093 
Q 1141 3584 1784 3584 
Q 2172 3584 2450 3431 
Q 2728 3278 2906 2969 
L 2906 3500 
L 3481 3500 
L 3481 434 
z
" transform="scale(0.015625)"/>
      <path id="DejaVuSans-64" d="M 2906 2969 
L 2906 4863 
L 3481 4863 
L 3481 0 
L 2906 0 
L 2906 525 
Q 2725 213 2448 61 
Q 2172 -91 1784 -91 
Q 1150 -91 751 415 
Q 353 922 353 1747 
Q 353 2572 751 3078 
Q 1150 3584 1784 3584 
Q 2172 3584 2448 3432 
Q 2725 3281 2906 2969 
z
M 947 1747 
Q 947 1113 1208 752 
Q 1469 391 1925 391 
Q 2381 391 2643 752 
Q 2906 1113 2906 1747 
Q 2906 2381 2643 2742 
Q 2381 3103 1925 3103 
Q 1469 3103 1208 2742 
Q 947 2381 947 1747 
z
" transform="scale(0.015625)"/>
      <path id="DejaVuSans-20" transform="scale(0.015625)"/>
      <path id="DejaVuSans-6f" d="M 1959 3097 
Q 1497 3097 1228 2736 
Q 959 2375 959 1747 
Q 959 1119 1226 758 
Q 1494 397 1959 397 
Q 2419 397 2687 759 
Q 2956 1122 2956 1747 
Q 2956 2369 2687 2733 
Q 2419 3097 1959 3097 
z
M 1959 3584 
Q 2709 3584 3137 3096 
Q 3566 2609 3566 1747 
Q 3566 888 3137 398 
Q 2709 -91 1959 -91 
Q 1206 -91 779 398 
Q 353 888 353 1747 
Q 353 2609 779 3096 
Q 1206 3584 1959 3584 
z
" transform="scale(0.015625)"/>
      <path id="DejaVuSans-6c" d="M 603 4863 
L 1178 4863 
L 1178 0 
L 603 0 
L 603 4863 
z
" transform="scale(0.015625)"/>
     </defs>
     <use xlink:href="#DejaVuSans-4d"/>
     <use xlink:href="#DejaVuSans-65" x="86.279297"/>
     <use xlink:href="#DejaVuSans-72" x="147.802734"/>
     <use xlink:href="#DejaVuSans-67" x="187.166016"/>
     <use xlink:href="#DejaVuSans-65" x="250.642578"/>
     <use xlink:href="#DejaVuSans-64" x="312.166016"/>
     <use xlink:href="#DejaVuSans-20" x="375.642578"/>
     <use xlink:href="#DejaVuSans-4d" x="407.429688"/>
     <use xlink:href="#DejaVuSans-6f" x="493.708984"/>
     <use xlink:href="#DejaVuSans-64" x="554.890625"/>
     <use xlink:href="#DejaVuSans-65" x="618.367188"/>
     <use xlink:href="#DejaVuSans-6c" x="679.890625"/>
    </g>
   </g>
   <g id="legend_1">
    <g id="patch_2">
     <path d="M 277.98875 93.506375 
L 407.72 93.506375 
Q 409.72 93.506375 409.72 91.506375 
L 409.72 48.472 
Q 409.72 46.472 407.72 46.472 
L 277.98875 46.472 
Q 275.98875 46.472 275.98875 48.472 
L 275.98875 91.506375 
Q 275.98875 93.506375 277.98875 93.506375 
z
" style="fill: #ffffff; opacity: 0.8; stroke: #cccccc; stroke-linejoin: miter"/>
    </g>
    <g id="line2d_4">
     <path d="M 279.98875 54.570438 
L 289.98875 54.570438 
L 299.98875 54.570438 
" style="fill: none; stroke: #7f00ff; stroke-width: 4; stroke-linecap: square"/>
    </g>
    <g id="text_2">
     <!-- Saturated opacity -->
     <g transform="translate(307.98875 58.070438) scale(0.1 -0.1)">
      <defs>
       <path id="DejaVuSans-53" d="M 3425 4513 
L 3425 3897 
Q 3066 4069 2747 4153 
Q 2428 4238 2131 4238 
Q 1616 4238 1336 4038 
Q 1056 3838 1056 3469 
Q 1056 3159 1242 3001 
Q 1428 2844 1947 2747 
L 2328 2669 
Q 3034 2534 3370 2195 
Q 3706 1856 3706 1288 
Q 3706 609 3251 259 
Q 2797 -91 1919 -91 
Q 1588 -91 1214 -16 
Q 841 59 441 206 
L 441 856 
Q 825 641 1194 531 
Q 1563 422 1919 422 
Q 2459 422 2753 634 
Q 3047 847 3047 1241 
Q 3047 1584 2836 1778 
Q 2625 1972 2144 2069 
L 1759 2144 
Q 1053 2284 737 2584 
Q 422 2884 422 3419 
Q 422 4038 858 4394 
Q 1294 4750 2059 4750 
Q 2388 4750 2728 4690 
Q 3069 4631 3425 4513 
z
" transform="scale(0.015625)"/>
       <path id="DejaVuSans-61" d="M 2194 1759 
Q 1497 1759 1228 1600 
Q 959 1441 959 1056 
Q 959 750 1161 570 
Q 1363 391 1709 391 
Q 2188 391 2477 730 
Q 2766 1069 2766 1631 
L 2766 1759 
L 2194 1759 
z
M 3341 1997 
L 3341 0 
L 2766 0 
L 2766 531 
Q 2569 213 2275 61 
Q 1981 -91 1556 -91 
Q 1019 -91 701 211 
Q 384 513 384 1019 
Q 384 1609 779 1909 
Q 1175 2209 1959 2209 
L 2766 2209 
L 2766 2266 
Q 2766 2663 2505 2880 
Q 2244 3097 1772 3097 
Q 1472 3097 1187 3025 
Q 903 2953 641 2809 
L 641 3341 
Q 956 3463 1253 3523 
Q 1550 3584 1831 3584 
Q 2591 3584 2966 3190 
Q 3341 2797 3341 1997 
z
" transform="scale(0.015625)"/>
       <path id="DejaVuSans-74" d="M 1172 4494 
L 1172 3500 
L 2356 3500 
L 2356 3053 
L 1172 3053 
L 1172 1153 
Q 1172 725 1289 603 
Q 1406 481 1766 481 
L 2356 481 
L 2356 0 
L 1766 0 
Q 1100 0 847 248 
Q 594 497 594 1153 
L 594 3053 
L 172 3053 
L 172 3500 
L 594 3500 
L 594 4494 
L 1172 4494 
z
" transform="scale(0.015625)"/>
       <path id="DejaVuSans-75" d="M 544 1381 
L 544 3500 
L 1119 3500 
L 1119 1403 
Q 1119 906 1312 657 
Q 1506 409 1894 409 
Q 2359 409 2629 706 
Q 2900 1003 2900 1516 
L 2900 3500 
L 3475 3500 
L 3475 0 
L 2900 0 
L 2900 538 
Q 2691 219 2414 64 
Q 2138 -91 1772 -91 
Q 1169 -91 856 284 
Q 544 659 544 1381 
z
M 1991 3584 
L 1991 3584 
z
" transform="scale(0.015625)"/>
       <path id="DejaVuSans-70" d="M 1159 525 
L 1159 -1331 
L 581 -1331 
L 581 3500 
L 1159 3500 
L 1159 2969 
Q 1341 3281 1617 3432 
Q 1894 3584 2278 3584 
Q 2916 3584 3314 3078 
Q 3713 2572 3713 1747 
Q 3713 922 3314 415 
Q 2916 -91 2278 -91 
Q 1894 -91 1617 61 
Q 1341 213 1159 525 
z
M 3116 1747 
Q 3116 2381 2855 2742 
Q 2594 3103 2138 3103 
Q 1681 3103 1420 2742 
Q 1159 2381 1159 1747 
Q 1159 1113 1420 752 
Q 1681 391 2138 391 
Q 2594 391 2855 752 
Q 3116 1113 3116 1747 
z
" transform="scale(0.015625)"/>
       <path id="DejaVuSans-63" d="M 3122 3366 
L 3122 2828 
Q 2878 2963 2633 3030 
Q 2388 3097 2138 3097 
Q 1578 3097 1268 2742 
Q 959 2388 959 1747 
Q 959 1106 1268 751 
Q 1578 397 2138 397 
Q 2388 397 2633 464 
Q 2878 531 3122 666 
L 3122 134 
Q 2881 22 2623 -34 
Q 2366 -91 2075 -91 
Q 1284 -91 818 406 
Q 353 903 353 1747 
Q 353 2603 823 3093 
Q 1294 3584 2113 3584 
Q 2378 3584 2631 3529 
Q 2884 3475 3122 3366 
z
" transform="scale(0.015625)"/>
       <path id="DejaVuSans-69" d="M 603 3500 
L 1178 3500 
L 1178 0 
L 603 0 
L 603 3500 
z
M 603 4863 
L 1178 4863 
L 1178 4134 
L 603 4134 
L 603 4863 
z
" transform="scale(0.015625)"/>
       <path id="DejaVuSans-79" d="M 2059 -325 
Q 1816 -950 1584 -1140 
Q 1353 -1331 966 -1331 
L 506 -1331 
L 506 -850 
L 844 -850 
Q 1081 -850 1212 -737 
Q 1344 -625 1503 -206 
L 1606 56 
L 191 3500 
L 800 3500 
L 1894 763 
L 2988 3500 
L 3597 3500 
L 2059 -325 
z
" transform="scale(0.015625)"/>
      </defs>
      <use xlink:href="#DejaVuSans-53"/>
      <use xlink:href="#DejaVuSans-61" x="63.476562"/>
      <use xlink:href="#DejaVuSans-74" x="124.755859"/>
      <use xlink:href="#DejaVuSans-75" x="163.964844"/>
      <use xlink:href="#DejaVuSans-72" x="227.34375"/>
      <use xlink:href="#DejaVuSans-61" x="268.457031"/>
      <use xlink:href="#DejaVuSans-74" x="329.736328"/>
      <use xlink:href="#DejaVuSans-65" x="368.945312"/>
      <use xlink:href="#DejaVuSans-64" x="430.46875"/>
      <use xlink:href="#DejaVuSans-20" x="493.945312"/>
      <use xlink:href="#DejaVuSans-6f" x="525.732422"/>
      <use xlink:href="#DejaVuSans-70" x="586.914062"/>
      <use xlink:href="#DejaVuSans-61" x="650.390625"/>
      <use xlink:href="#DejaVuSans-63" x="711.669922"/>
      <use xlink:href="#DejaVuSans-69" x="766.650391"/>
      <use xlink:href="#DejaVuSans-74" x="794.433594"/>
      <use xlink:href="#DejaVuSans-79" x="833.642578"/>
     </g>
    </g>
    <g id="line2d_5">
     <path d="M 279.98875 69.248563 
L 289.98875 69.248563 
L 299.98875 69.248563 
" style="fill: none; stroke-dasharray: 2,3.3; stroke-dashoffset: 0; stroke: #bbbbbb; stroke-width: 2"/>
    </g>
    <g id="text_3">
     <!-- Opacity cutoff -->
     <g transform="translate(307.98875 72.748563) scale(0.1 -0.1)">
      <defs>
       <path id="DejaVuSans-4f" d="M 2522 4238 
Q 1834 4238 1429 3725 
Q 1025 3213 1025 2328 
Q 1025 1447 1429 934 
Q 1834 422 2522 422 
Q 3209 422 3611 934 
Q 4013 1447 4013 2328 
Q 4013 3213 3611 3725 
Q 3209 4238 2522 4238 
z
M 2522 4750 
Q 3503 4750 4090 4092 
Q 4678 3434 4678 2328 
Q 4678 1225 4090 567 
Q 3503 -91 2522 -91 
Q 1538 -91 948 565 
Q 359 1222 359 2328 
Q 359 3434 948 4092 
Q 1538 4750 2522 4750 
z
" transform="scale(0.015625)"/>
       <path id="DejaVuSans-66" d="M 2375 4863 
L 2375 4384 
L 1825 4384 
Q 1516 4384 1395 4259 
Q 1275 4134 1275 3809 
L 1275 3500 
L 2222 3500 
L 2222 3053 
L 1275 3053 
L 1275 0 
L 697 0 
L 697 3053 
L 147 3053 
L 147 3500 
L 697 3500 
L 697 3744 
Q 697 4328 969 4595 
Q 1241 4863 1831 4863 
L 2375 4863 
z
" transform="scale(0.015625)"/>
      </defs>
      <use xlink:href="#DejaVuSans-4f"/>
      <use xlink:href="#DejaVuSans-70" x="78.710938"/>
      <use xlink:href="#DejaVuSans-61" x="142.1875"/>
      <use xlink:href="#DejaVuSans-63" x="203.466797"/>
      <use xlink:href="#DejaVuSans-69" x="258.447266"/>
      <use xlink:href="#DejaVuSans-74" x="286.230469"/>
      <use xlink:href="#DejaVuSans-79" x="325.439453"/>
      <use xlink:href="#DejaVuSans-20" x="384.619141"/>
      <use xlink:href="#DejaVuSans-63" x="416.40625"/>
      <use xlink:href="#DejaVuSans-75" x="471.386719"/>
      <use xlink:href="#DejaVuSans-74" x="534.765625"/>
      <use xlink:href="#DejaVuSans-6f" x="573.974609"/>
      <use xlink:href="#DejaVuSans-66" x="635.15625"/>
      <use xlink:href="#DejaVuSans-66" x="670.361328"/>
     </g>
    </g>
    <g id="line2d_6">
     <path d="M 279.98875 83.926688 
L 289.98875 83.926688 
L 299.98875 83.926688 
" style="fill: none; stroke-dasharray: 2,3.3; stroke-dashoffset: 0; stroke: #7f00ff; stroke-opacity: 0.6; stroke-width: 2"/>
    </g>
    <g id="text_4">
     <!-- Merged distribution -->
     <g transform="translate(307.98875 87.426688) scale(0.1 -0.1)">
      <defs>
       <path id="DejaVuSans-73" d="M 2834 3397 
L 2834 2853 
Q 2591 2978 2328 3040 
Q 2066 3103 1784 3103 
Q 1356 3103 1142 2972 
Q 928 2841 928 2578 
Q 928 2378 1081 2264 
Q 1234 2150 1697 2047 
L 1894 2003 
Q 2506 1872 2764 1633 
Q 3022 1394 3022 966 
Q 3022 478 2636 193 
Q 2250 -91 1575 -91 
Q 1294 -91 989 -36 
Q 684 19 347 128 
L 347 722 
Q 666 556 975 473 
Q 1284 391 1588 391 
Q 1994 391 2212 530 
Q 2431 669 2431 922 
Q 2431 1156 2273 1281 
Q 2116 1406 1581 1522 
L 1381 1569 
Q 847 1681 609 1914 
Q 372 2147 372 2553 
Q 372 3047 722 3315 
Q 1072 3584 1716 3584 
Q 2034 3584 2315 3537 
Q 2597 3491 2834 3397 
z
" transform="scale(0.015625)"/>
       <path id="DejaVuSans-62" d="M 3116 1747 
Q 3116 2381 2855 2742 
Q 2594 3103 2138 3103 
Q 1681 3103 1420 2742 
Q 1159 2381 1159 1747 
Q 1159 1113 1420 752 
Q 1681 391 2138 391 
Q 2594 391 2855 752 
Q 3116 1113 3116 1747 
z
M 1159 2969 
Q 1341 3281 1617 3432 
Q 1894 3584 2278 3584 
Q 2916 3584 3314 3078 
Q 3713 2572 3713 1747 
Q 3713 922 3314 415 
Q 2916 -91 2278 -91 
Q 1894 -91 1617 61 
Q 1341 213 1159 525 
L 1159 0 
L 581 0 
L 581 4863 
L 1159 4863 
L 1159 2969 
z
" transform="scale(0.015625)"/>
       <path id="DejaVuSans-6e" d="M 3513 2113 
L 3513 0 
L 2938 0 
L 2938 2094 
Q 2938 2591 2744 2837 
Q 2550 3084 2163 3084 
Q 1697 3084 1428 2787 
Q 1159 2491 1159 1978 
L 1159 0 
L 581 0 
L 581 3500 
L 1159 3500 
L 1159 2956 
Q 1366 3272 1645 3428 
Q 1925 3584 2291 3584 
Q 2894 3584 3203 3211 
Q 3513 2838 3513 2113 
z
" transform="scale(0.015625)"/>
      </defs>
      <use xlink:href="#DejaVuSans-4d"/>
      <use xlink:href="#DejaVuSans-65" x="86.279297"/>
      <use xlink:href="#DejaVuSans-72" x="147.802734"/>
      <use xlink:href="#DejaVuSans-67" x="187.166016"/>
      <use xlink:href="#DejaVuSans-65" x="250.642578"/>
      <use xlink:href="#DejaVuSans-64" x="312.166016"/>
      <use xlink:href="#DejaVuSans-20" x="375.642578"/>
      <use xlink:href="#DejaVuSans-64" x="407.429688"/>
      <use xlink:href="#DejaVuSans-69" x="470.90625"/>
      <use xlink:href="#DejaVuSans-73" x="498.689453"/>
      <use xlink:href="#DejaVuSans-74" x="550.789062"/>
      <use xlink:href="#DejaVuSans-72" x="589.998047"/>
      <use xlink:href="#DejaVuSans-69" x="631.111328"/>
      <use xlink:href="#DejaVuSans-62" x="658.894531"/>
      <use xlink:href="#DejaVuSans-75" x="722.371094"/>
      <use xlink:href="#DejaVuSans-74" x="785.75"/>
      <use xlink:href="#DejaVuSans-69" x="824.958984"/>
      <use xlink:href="#DejaVuSans-6f" x="852.742188"/>
      <use xlink:href="#DejaVuSans-6e" x="913.923828"/>
     </g>
    </g>
   </g>
  </g>
 </g>
 <defs>
  <clipPath id="pf145e6d302">
   <rect x="57.6" y="41.472" width="357.12" height="266.112"/>
  </clipPath>
 </defs>
</svg>
