<?xml version="1.0" encoding="utf-8" standalone="no"?>
<!DOCTYPE svg PUBLIC "-//W3C//DTD SVG 1.1//EN"
  "http://www.w3.org/Graphics/SVG/1.1/DTD/svg11.dtd">
<svg xmlns:xlink="http://www.w3.org/1999/xlink" width="460.8pt" height="345.6pt" viewBox="0 0 460.8 345.6" xmlns="http://www.w3.org/2000/svg" version="1.1">
 <metadata>
  <rdf:RDF xmlns:dc="http://purl.org/dc/elements/1.1/" xmlns:cc="http://creativecommons.org/ns#" xmlns:rdf="http://www.w3.org/1999/02/22-rdf-syntax-ns#">
   <cc:Work>
    <dc:type rdf:resource="http://purl.org/dc/dcmitype/StillImage"/>
    <dc:date>2024-09-06T09:10:49.484302</dc:date>
    <dc:format>image/svg+xml</dc:format>
    <dc:creator>
     <cc:Agent>
      <dc:title>Matplotlib v3.7.1, https://matplotlib.org/</dc:title>
     </cc:Agent>
    </dc:creator>
   </cc:Work>
  </rdf:RDF>
 </metadata>
 <defs>
  <style type="text/css">*{stroke-linejoin: round; stroke-linecap: butt}</style>
 </defs>
 <g id="figure_1">
  <g id="patch_1">
   <path d="M 0 345.6 
L 460.8 345.6 
L 460.8 0 
L 0 0 
z
" style="fill: #ffffff"/>
  </g>
  <g id="axes_1">
   <g id="line2d_1">
    <path d="M 73.832727 295.421099 
L 83.907093 295.211178 
L 90.081704 294.870761 
L 94.631417 294.410081 
L 98.531171 293.788377 
L 101.780966 293.043078 
L 104.705782 292.138125 
L 107.305618 291.09931 
L 109.580475 289.971188 
L 111.855332 288.601938 
L 114.130188 286.953401 
L 116.080066 285.287172 
L 118.029943 283.358809 
L 119.97982 281.140628 
L 121.929697 278.604714 
L 123.879574 275.723506 
L 125.829451 272.47048 
L 127.779328 268.82092 
L 129.729206 264.752766 
L 132.004062 259.453108 
L 134.278919 253.537282 
L 136.553776 246.99433 
L 138.828632 239.825823 
L 141.428468 230.888509 
L 144.353284 219.94611 
L 147.603079 206.824572 
L 151.502834 190.063652 
L 162.877117 140.348316 
L 165.801933 128.970673 
L 168.07679 120.963478 
L 170.026667 114.813968 
L 171.976544 109.416814 
L 173.601441 105.551383 
L 175.226339 102.303766 
L 176.526257 100.173665 
L 177.826175 98.475429 
L 178.801114 97.492265 
L 179.776052 96.762426 
L 180.750991 96.288745 
L 181.72593 96.073062 
L 182.700868 96.116217 
L 183.675807 96.418043 
L 184.650745 96.977364 
L 185.625684 97.792007 
L 186.600622 98.858815 
L 187.900541 100.666221 
L 189.200459 102.902134 
L 190.500377 105.551383 
L 192.125274 109.416814 
L 193.750172 113.859933 
L 195.700049 119.889961 
L 197.974906 127.777102 
L 200.574742 137.72982 
L 203.499558 149.838987 
L 207.724292 168.358296 
L 215.5238 202.72184 
L 219.098575 217.397089 
L 222.023391 228.535055 
L 224.623227 237.66463 
L 227.223063 246.008348 
L 229.49792 252.641079 
L 231.772776 258.646094 
L 234.047633 264.032685 
L 236.32249 268.82092 
L 238.597346 273.039549 
L 240.547224 276.22883 
L 242.497101 279.05061 
L 244.446978 281.531637 
L 246.396855 283.699576 
L 248.346732 285.582341 
L 250.621589 287.455247 
L 252.896446 289.019927 
L 255.171302 290.31652 
L 257.771138 291.517776 
L 260.370975 292.468016 
L 263.29579 293.29242 
L 266.545586 293.968303 
L 270.44534 294.529186 
L 274.995053 294.94228 
L 280.844685 295.234355 
L 289.294152 295.410776 
L 305.543129 295.482037 
L 398.487273 295.488 
L 398.487273 295.488 
" clip-path="url(#p3f38e6b91f)" style="fill: none; stroke: #1565c0; stroke-opacity: 0.4; stroke-width: 4; stroke-linecap: square"/>
   </g>
   <g id="line2d_2">
    <path d="M 73.832727 295.487997 
L 131.354103 295.378079 
L 139.803571 295.136976 
L 145.328223 294.77656 
L 149.552957 294.300779 
L 153.127731 293.691451 
L 156.377527 292.909237 
L 159.302342 291.961621 
L 161.902179 290.876062 
L 164.177035 289.699331 
L 166.451892 288.273546 
L 168.726749 286.559928 
L 170.676626 284.830729 
L 172.626503 282.832525 
L 174.57638 280.537525 
L 176.526257 277.917843 
L 178.476134 274.94611 
L 180.426011 271.596179 
L 182.375889 267.843915 
L 184.650745 262.929617 
L 186.925602 257.411861 
L 189.200459 251.272711 
L 191.475315 244.505455 
L 194.075152 236.011376 
L 196.674988 226.73991 
L 199.599803 215.459352 
L 202.849599 202.031626 
L 207.074333 183.592354 
L 215.84878 145.035628 
L 218.773595 133.266104 
L 221.373432 123.727108 
L 223.648288 116.284121 
L 225.598165 110.691063 
L 227.223063 106.647858 
L 228.847961 103.211026 
L 230.147879 100.922561 
L 231.447797 99.060857 
L 232.747715 97.638624 
L 233.722654 96.866342 
L 234.697592 96.349813 
L 235.672531 96.091045 
L 236.647469 96.091045 
L 237.622408 96.349813 
L 238.597346 96.866342 
L 239.572285 97.638624 
L 240.547224 98.663665 
L 241.847142 100.41658 
L 243.14706 102.599703 
L 244.446978 105.198207 
L 246.071876 109.003569 
L 247.696773 113.390881 
L 249.64665 119.360258 
L 251.921507 127.18622 
L 254.521343 137.082605 
L 257.446159 149.146462 
L 261.670893 167.633971 
L 269.795381 203.410277 
L 273.370156 218.038106 
L 276.294971 229.127746 
L 278.894808 238.209571 
L 281.494644 246.502936 
L 283.7695 253.090784 
L 286.044357 259.051178 
L 288.319214 264.394249 
L 290.59407 269.140754 
L 292.868927 273.319985 
L 294.818804 276.477655 
L 296.768681 279.27 
L 298.718559 281.723872 
L 300.668436 283.866981 
L 302.943292 286.011722 
L 305.218149 287.815077 
L 307.493006 289.31902 
L 309.767862 290.563123 
L 312.367699 291.713638 
L 314.967535 292.621966 
L 317.892351 293.408399 
L 321.142146 294.051692 
L 325.0419 294.584148 
L 329.591613 294.975119 
L 335.766224 295.260801 
L 344.865651 295.425761 
L 363.714464 295.485029 
L 398.487273 295.487997 
L 398.487273 295.487997 
" clip-path="url(#p3f38e6b91f)" style="fill: none; stroke: #ff3366; stroke-opacity: 0.4; stroke-width: 4; stroke-linecap: square"/>
   </g>
   <g id="line2d_3">
    <path d="M 73.832727 295.421096 
L 83.907093 295.211152 
L 90.081704 294.870667 
L 94.631417 294.409853 
L 98.531171 293.787898 
L 101.780966 293.042201 
L 104.705782 292.136635 
L 107.305618 291.096943 
L 109.580475 289.967669 
L 111.855332 288.596741 
L 114.130188 286.94578 
L 116.080066 285.276651 
L 118.029943 283.34436 
L 119.97982 281.120887 
L 121.929697 278.577881 
L 123.879574 275.687224 
L 125.829451 272.421674 
L 127.779328 268.755608 
L 129.729206 264.665819 
L 132.004062 259.332501 
L 134.278919 253.371161 
L 136.553776 246.767131 
L 138.828632 239.51728 
L 141.428468 230.454546 
L 144.028305 220.600572 
L 146.95312 208.651646 
L 150.527895 193.001375 
L 155.077609 171.929259 
L 164.502015 127.917711 
L 167.75181 113.89964 
L 170.676626 102.269933 
L 173.276462 92.890129 
L 175.551319 85.513498 
L 177.501196 79.84847 
L 179.451073 74.809348 
L 181.40095 70.399962 
L 183.350827 66.610874 
L 184.975725 63.911518 
L 186.600622 61.608664 
L 188.22552 59.678148 
L 189.850418 58.091426 
L 191.475315 56.816401 
L 193.100213 55.818337 
L 194.725111 55.060854 
L 196.674988 54.417384 
L 198.624865 54.004244 
L 201.224701 53.709901 
L 204.799476 53.580849 
L 213.898903 53.587701 
L 217.473677 53.747886 
L 220.073514 54.089265 
L 222.023391 54.554242 
L 223.973268 55.265038 
L 225.598165 56.090818 
L 227.223063 57.168206 
L 228.847961 58.533195 
L 230.472858 60.21983 
L 232.097756 62.259234 
L 233.722654 64.678719 
L 235.347551 67.500995 
L 236.972449 70.743503 
L 238.922326 75.205187 
L 240.872203 80.296798 
L 242.82208 86.013393 
L 245.096937 93.447549 
L 247.371794 101.655814 
L 249.97163 111.889786 
L 252.896446 124.321611 
L 256.47122 140.499177 
L 263.62077 174.22644 
L 268.495463 196.644892 
L 272.070238 212.055895 
L 274.995053 223.761526 
L 277.919869 234.51973 
L 280.519705 243.222631 
L 282.794562 250.149969 
L 285.069419 256.431499 
L 287.344275 262.076346 
L 289.619132 267.104251 
L 291.893989 271.54366 
L 293.843866 274.907017 
L 295.793743 277.888894 
L 297.74362 280.516199 
L 299.693497 282.816896 
L 301.643374 284.819334 
L 303.918231 286.816066 
L 306.193088 288.488575 
L 308.467944 289.878197 
L 310.742801 291.023525 
L 313.342637 292.078637 
L 316.267453 292.998262 
L 319.517248 293.756107 
L 323.092023 294.345397 
L 327.316757 294.80462 
L 332.516429 295.136938 
L 339.665979 295.355735 
L 351.690221 295.466119 
L 391.012744 295.487985 
L 398.487273 295.487997 
L 398.487273 295.487997 
" clip-path="url(#p3f38e6b91f)" style="fill: none; stroke: #7f00ff; stroke-width: 4; stroke-linecap: square"/>
   </g>
   <g id="line2d_4">
    <path d="M 73.832727 96.058675 
L 398.487273 96.058675 
L 398.487273 96.058675 
" clip-path="url(#p3f38e6b91f)" style="fill: none; stroke-dasharray: 2,3.3; stroke-dashoffset: 0; stroke: #bbbbbb; stroke-width: 2"/>
   </g>
   <g id="text_1">
    <!-- Gaussian opacity across scanline -->
    <g transform="translate(136.924688 35.472) scale(0.12 -0.12)">
     <defs>
      <path id="DejaVuSans-47" d="M 3809 666 
L 3809 1919 
L 2778 1919 
L 2778 2438 
L 4434 2438 
L 4434 434 
Q 4069 175 3628 42 
Q 3188 -91 2688 -91 
Q 1594 -91 976 548 
Q 359 1188 359 2328 
Q 359 3472 976 4111 
Q 1594 4750 2688 4750 
Q 3144 4750 3555 4637 
Q 3966 4525 4313 4306 
L 4313 3634 
Q 3963 3931 3569 4081 
Q 3175 4231 2741 4231 
Q 1884 4231 1454 3753 
Q 1025 3275 1025 2328 
Q 1025 1384 1454 906 
Q 1884 428 2741 428 
Q 3075 428 3337 486 
Q 3600 544 3809 666 
z
" transform="scale(0.015625)"/>
      <path id="DejaVuSans-61" d="M 2194 1759 
Q 1497 1759 1228 1600 
Q 959 1441 959 1056 
Q 959 750 1161 570 
Q 1363 391 1709 391 
Q 2188 391 2477 730 
Q 2766 1069 2766 1631 
L 2766 1759 
L 2194 1759 
z
M 3341 1997 
L 3341 0 
L 2766 0 
L 2766 531 
Q 2569 213 2275 61 
Q 1981 -91 1556 -91 
Q 1019 -91 701 211 
Q 384 513 384 1019 
Q 384 1609 779 1909 
Q 1175 2209 1959 2209 
L 2766 2209 
L 2766 2266 
Q 2766 2663 2505 2880 
Q 2244 3097 1772 3097 
Q 1472 3097 1187 3025 
Q 903 2953 641 2809 
L 641 3341 
Q 956 3463 1253 3523 
Q 1550 3584 1831 3584 
Q 2591 3584 2966 3190 
Q 3341 2797 3341 1997 
z
" transform="scale(0.015625)"/>
      <path id="DejaVuSans-75" d="M 544 1381 
L 544 3500 
L 1119 3500 
L 1119 1403 
Q 1119 906 1312 657 
Q 1506 409 1894 409 
Q 2359 409 2629 706 
Q 2900 1003 2900 1516 
L 2900 3500 
L 3475 3500 
L 3475 0 
L 2900 0 
L 2900 538 
Q 2691 219 2414 64 
Q 2138 -91 1772 -91 
Q 1169 -91 856 284 
Q 544 659 544 1381 
z
M 1991 3584 
L 1991 3584 
z
" transform="scale(0.015625)"/>
      <path id="DejaVuSans-73" d="M 2834 3397 
L 2834 2853 
Q 2591 2978 2328 3040 
Q 2066 3103 1784 3103 
Q 1356 3103 1142 2972 
Q 928 2841 928 2578 
Q 928 2378 1081 2264 
Q 1234 2150 1697 2047 
L 1894 2003 
Q 2506 1872 2764 1633 
Q 3022 1394 3022 966 
Q 3022 478 2636 193 
Q 2250 -91 1575 -91 
Q 1294 -91 989 -36 
Q 684 19 347 128 
L 347 722 
Q 666 556 975 473 
Q 1284 391 1588 391 
Q 1994 391 2212 530 
Q 2431 669 2431 922 
Q 2431 1156 2273 1281 
Q 2116 1406 1581 1522 
L 1381 1569 
Q 847 1681 609 1914 
Q 372 2147 372 2553 
Q 372 3047 722 3315 
Q 1072 3584 1716 3584 
Q 2034 3584 2315 3537 
Q 2597 3491 2834 3397 
z
" transform="scale(0.015625)"/>
      <path id="DejaVuSans-69" d="M 603 3500 
L 1178 3500 
L 1178 0 
L 603 0 
L 603 3500 
z
M 603 4863 
L 1178 4863 
L 1178 4134 
L 603 4134 
L 603 4863 
z
" transform="scale(0.015625)"/>
      <path id="DejaVuSans-6e" d="M 3513 2113 
L 3513 0 
L 2938 0 
L 2938 2094 
Q 2938 2591 2744 2837 
Q 2550 3084 2163 3084 
Q 1697 3084 1428 2787 
Q 1159 2491 1159 1978 
L 1159 0 
L 581 0 
L 581 3500 
L 1159 3500 
L 1159 2956 
Q 1366 3272 1645 3428 
Q 1925 3584 2291 3584 
Q 2894 3584 3203 3211 
Q 3513 2838 3513 2113 
z
" transform="scale(0.015625)"/>
      <path id="DejaVuSans-20" transform="scale(0.015625)"/>
      <path id="DejaVuSans-6f" d="M 1959 3097 
Q 1497 3097 1228 2736 
Q 959 2375 959 1747 
Q 959 1119 1226 758 
Q 1494 397 1959 397 
Q 2419 397 2687 759 
Q 2956 1122 2956 1747 
Q 2956 2369 2687 2733 
Q 2419 3097 1959 3097 
z
M 1959 3584 
Q 2709 3584 3137 3096 
Q 3566 2609 3566 1747 
Q 3566 888 3137 398 
Q 2709 -91 1959 -91 
Q 1206 -91 779 398 
Q 353 888 353 1747 
Q 353 2609 779 3096 
Q 1206 3584 1959 3584 
z
" transform="scale(0.015625)"/>
      <path id="DejaVuSans-70" d="M 1159 525 
L 1159 -1331 
L 581 -1331 
L 581 3500 
L 1159 3500 
L 1159 2969 
Q 1341 3281 1617 3432 
Q 1894 3584 2278 3584 
Q 2916 3584 3314 3078 
Q 3713 2572 3713 1747 
Q 3713 922 3314 415 
Q 2916 -91 2278 -91 
Q 1894 -91 1617 61 
Q 1341 213 1159 525 
z
M 3116 1747 
Q 3116 2381 2855 2742 
Q 2594 3103 2138 3103 
Q 1681 3103 1420 2742 
Q 1159 2381 1159 1747 
Q 1159 1113 1420 752 
Q 1681 391 2138 391 
Q 2594 391 2855 752 
Q 3116 1113 3116 1747 
z
" transform="scale(0.015625)"/>
      <path id="DejaVuSans-63" d="M 3122 3366 
L 3122 2828 
Q 2878 2963 2633 3030 
Q 2388 3097 2138 3097 
Q 1578 3097 1268 2742 
Q 959 2388 959 1747 
Q 959 1106 1268 751 
Q 1578 397 2138 397 
Q 2388 397 2633 464 
Q 2878 531 3122 666 
L 3122 134 
Q 2881 22 2623 -34 
Q 2366 -91 2075 -91 
Q 1284 -91 818 406 
Q 353 903 353 1747 
Q 353 2603 823 3093 
Q 1294 3584 2113 3584 
Q 2378 3584 2631 3529 
Q 2884 3475 3122 3366 
z
" transform="scale(0.015625)"/>
      <path id="DejaVuSans-74" d="M 1172 4494 
L 1172 3500 
L 2356 3500 
L 2356 3053 
L 1172 3053 
L 1172 1153 
Q 1172 725 1289 603 
Q 1406 481 1766 481 
L 2356 481 
L 2356 0 
L 1766 0 
Q 1100 0 847 248 
Q 594 497 594 1153 
L 594 3053 
L 172 3053 
L 172 3500 
L 594 3500 
L 594 4494 
L 1172 4494 
z
" transform="scale(0.015625)"/>
      <path id="DejaVuSans-79" d="M 2059 -325 
Q 1816 -950 1584 -1140 
Q 1353 -1331 966 -1331 
L 506 -1331 
L 506 -850 
L 844 -850 
Q 1081 -850 1212 -737 
Q 1344 -625 1503 -206 
L 1606 56 
L 191 3500 
L 800 3500 
L 1894 763 
L 2988 3500 
L 3597 3500 
L 2059 -325 
z
" transform="scale(0.015625)"/>
      <path id="DejaVuSans-72" d="M 2631 2963 
Q 2534 3019 2420 3045 
Q 2306 3072 2169 3072 
Q 1681 3072 1420 2755 
Q 1159 2438 1159 1844 
L 1159 0 
L 581 0 
L 581 3500 
L 1159 3500 
L 1159 2956 
Q 1341 3275 1631 3429 
Q 1922 3584 2338 3584 
Q 2397 3584 2469 3576 
Q 2541 3569 2628 3553 
L 2631 2963 
z
" transform="scale(0.015625)"/>
      <path id="DejaVuSans-6c" d="M 603 4863 
L 1178 4863 
L 1178 0 
L 603 0 
L 603 4863 
z
" transform="scale(0.015625)"/>
      <path id="DejaVuSans-65" d="M 3597 1894 
L 3597 1613 
L 953 1613 
Q 991 1019 1311 708 
Q 1631 397 2203 397 
Q 2534 397 2845 478 
Q 3156 559 3463 722 
L 3463 178 
Q 3153 47 2828 -22 
Q 2503 -91 2169 -91 
Q 1331 -91 842 396 
Q 353 884 353 1716 
Q 353 2575 817 3079 
Q 1281 3584 2069 3584 
Q 2775 3584 3186 3129 
Q 3597 2675 3597 1894 
z
M 3022 2063 
Q 3016 2534 2758 2815 
Q 2500 3097 2075 3097 
Q 1594 3097 1305 2825 
Q 1016 2553 972 2059 
L 3022 2063 
z
" transform="scale(0.015625)"/>
     </defs>
     <use xlink:href="#DejaVuSans-47"/>
     <use xlink:href="#DejaVuSans-61" x="77.490234"/>
     <use xlink:href="#DejaVuSans-75" x="138.769531"/>
     <use xlink:href="#DejaVuSans-73" x="202.148438"/>
     <use xlink:href="#DejaVuSans-73" x="254.248047"/>
     <use xlink:href="#DejaVuSans-69" x="306.347656"/>
     <use xlink:href="#DejaVuSans-61" x="334.130859"/>
     <use xlink:href="#DejaVuSans-6e" x="395.410156"/>
     <use xlink:href="#DejaVuSans-20" x="458.789062"/>
     <use xlink:href="#DejaVuSans-6f" x="490.576172"/>
     <use xlink:href="#DejaVuSans-70" x="551.757812"/>
     <use xlink:href="#DejaVuSans-61" x="615.234375"/>
     <use xlink:href="#DejaVuSans-63" x="676.513672"/>
     <use xlink:href="#DejaVuSans-69" x="731.494141"/>
     <use xlink:href="#DejaVuSans-74" x="759.277344"/>
     <use xlink:href="#DejaVuSans-79" x="798.486328"/>
     <use xlink:href="#DejaVuSans-20" x="857.666016"/>
     <use xlink:href="#DejaVuSans-61" x="889.453125"/>
     <use xlink:href="#DejaVuSans-63" x="950.732422"/>
     <use xlink:href="#DejaVuSans-72" x="1005.712891"/>
     <use xlink:href="#DejaVuSans-6f" x="1044.576172"/>
     <use xlink:href="#DejaVuSans-73" x="1105.757812"/>
     <use xlink:href="#DejaVuSans-73" x="1157.857422"/>
     <use xlink:href="#DejaVuSans-20" x="1209.957031"/>
     <use xlink:href="#DejaVuSans-73" x="1241.744141"/>
     <use xlink:href="#DejaVuSans-63" x="1293.84375"/>
     <use xlink:href="#DejaVuSans-61" x="1348.824219"/>
     <use xlink:href="#DejaVuSans-6e" x="1410.103516"/>
     <use xlink:href="#DejaVuSans-6c" x="1473.482422"/>
     <use xlink:href="#DejaVuSans-69" x="1501.265625"/>
     <use xlink:href="#DejaVuSans-6e" x="1529.048828"/>
     <use xlink:href="#DejaVuSans-65" x="1592.427734"/>
    </g>
   </g>
   <g id="legend_1">
    <g id="patch_2">
     <path d="M 278.660625 205.38425 
L 407.72 205.38425 
Q 409.72 205.38425 409.72 203.38425 
L 409.72 145.67175 
Q 409.72 143.67175 407.72 143.67175 
L 278.660625 143.67175 
Q 276.660625 143.67175 276.660625 145.67175 
L 276.660625 203.38425 
Q 276.660625 205.38425 278.660625 205.38425 
z
" style="fill: #ffffff; opacity: 0.8; stroke: #cccccc; stroke-linejoin: miter"/>
    </g>
    <g id="line2d_5">
     <path d="M 280.660625 151.770188 
L 290.660625 151.770188 
L 300.660625 151.770188 
" style="fill: none; stroke: #1565c0; stroke-opacity: 0.4; stroke-width: 4; stroke-linecap: square"/>
    </g>
    <g id="text_2">
     <!-- Opacity Gaussian 1 -->
     <g transform="translate(308.660625 155.270188) scale(0.1 -0.1)">
      <defs>
       <path id="DejaVuSans-4f" d="M 2522 4238 
Q 1834 4238 1429 3725 
Q 1025 3213 1025 2328 
Q 1025 1447 1429 934 
Q 1834 422 2522 422 
Q 3209 422 3611 934 
Q 4013 1447 4013 2328 
Q 4013 3213 3611 3725 
Q 3209 4238 2522 4238 
z
M 2522 4750 
Q 3503 4750 4090 4092 
Q 4678 3434 4678 2328 
Q 4678 1225 4090 567 
Q 3503 -91 2522 -91 
Q 1538 -91 948 565 
Q 359 1222 359 2328 
Q 359 3434 948 4092 
Q 1538 4750 2522 4750 
z
" transform="scale(0.015625)"/>
       <path id="DejaVuSans-31" d="M 794 531 
L 1825 531 
L 1825 4091 
L 703 3866 
L 703 4441 
L 1819 4666 
L 2450 4666 
L 2450 531 
L 3481 531 
L 3481 0 
L 794 0 
L 794 531 
z
" transform="scale(0.015625)"/>
      </defs>
      <use xlink:href="#DejaVuSans-4f"/>
      <use xlink:href="#DejaVuSans-70" x="78.710938"/>
      <use xlink:href="#DejaVuSans-61" x="142.1875"/>
      <use xlink:href="#DejaVuSans-63" x="203.466797"/>
      <use xlink:href="#DejaVuSans-69" x="258.447266"/>
      <use xlink:href="#DejaVuSans-74" x="286.230469"/>
      <use xlink:href="#DejaVuSans-79" x="325.439453"/>
      <use xlink:href="#DejaVuSans-20" x="384.619141"/>
      <use xlink:href="#DejaVuSans-47" x="416.40625"/>
      <use xlink:href="#DejaVuSans-61" x="493.896484"/>
      <use xlink:href="#DejaVuSans-75" x="555.175781"/>
      <use xlink:href="#DejaVuSans-73" x="618.554688"/>
      <use xlink:href="#DejaVuSans-73" x="670.654297"/>
      <use xlink:href="#DejaVuSans-69" x="722.753906"/>
      <use xlink:href="#DejaVuSans-61" x="750.537109"/>
      <use xlink:href="#DejaVuSans-6e" x="811.816406"/>
      <use xlink:href="#DejaVuSans-20" x="875.195312"/>
      <use xlink:href="#DejaVuSans-31" x="906.982422"/>
     </g>
    </g>
    <g id="line2d_6">
     <path d="M 280.660625 166.448313 
L 290.660625 166.448313 
L 300.660625 166.448313 
" style="fill: none; stroke: #ff3366; stroke-opacity: 0.4; stroke-width: 4; stroke-linecap: square"/>
    </g>
    <g id="text_3">
     <!-- Opacity Gaussian 2 -->
     <g transform="translate(308.660625 169.948313) scale(0.1 -0.1)">
      <defs>
       <path id="DejaVuSans-32" d="M 1228 531 
L 3431 531 
L 3431 0 
L 469 0 
L 469 531 
Q 828 903 1448 1529 
Q 2069 2156 2228 2338 
Q 2531 2678 2651 2914 
Q 2772 3150 2772 3378 
Q 2772 3750 2511 3984 
Q 2250 4219 1831 4219 
Q 1534 4219 1204 4116 
Q 875 4013 500 3803 
L 500 4441 
Q 881 4594 1212 4672 
Q 1544 4750 1819 4750 
Q 2544 4750 2975 4387 
Q 3406 4025 3406 3419 
Q 3406 3131 3298 2873 
Q 3191 2616 2906 2266 
Q 2828 2175 2409 1742 
Q 1991 1309 1228 531 
z
" transform="scale(0.015625)"/>
      </defs>
      <use xlink:href="#DejaVuSans-4f"/>
      <use xlink:href="#DejaVuSans-70" x="78.710938"/>
      <use xlink:href="#DejaVuSans-61" x="142.1875"/>
      <use xlink:href="#DejaVuSans-63" x="203.466797"/>
      <use xlink:href="#DejaVuSans-69" x="258.447266"/>
      <use xlink:href="#DejaVuSans-74" x="286.230469"/>
      <use xlink:href="#DejaVuSans-79" x="325.439453"/>
      <use xlink:href="#DejaVuSans-20" x="384.619141"/>
      <use xlink:href="#DejaVuSans-47" x="416.40625"/>
      <use xlink:href="#DejaVuSans-61" x="493.896484"/>
      <use xlink:href="#DejaVuSans-75" x="555.175781"/>
      <use xlink:href="#DejaVuSans-73" x="618.554688"/>
      <use xlink:href="#DejaVuSans-73" x="670.654297"/>
      <use xlink:href="#DejaVuSans-69" x="722.753906"/>
      <use xlink:href="#DejaVuSans-61" x="750.537109"/>
      <use xlink:href="#DejaVuSans-6e" x="811.816406"/>
      <use xlink:href="#DejaVuSans-20" x="875.195312"/>
      <use xlink:href="#DejaVuSans-32" x="906.982422"/>
     </g>
    </g>
    <g id="line2d_7">
     <path d="M 280.660625 181.126438 
L 290.660625 181.126438 
L 300.660625 181.126438 
" style="fill: none; stroke: #7f00ff; stroke-width: 4; stroke-linecap: square"/>
    </g>
    <g id="text_4">
     <!-- Sum of opacities -->
     <g transform="translate(308.660625 184.626438) scale(0.1 -0.1)">
      <defs>
       <path id="DejaVuSans-53" d="M 3425 4513 
L 3425 3897 
Q 3066 4069 2747 4153 
Q 2428 4238 2131 4238 
Q 1616 4238 1336 4038 
Q 1056 3838 1056 3469 
Q 1056 3159 1242 3001 
Q 1428 2844 1947 2747 
L 2328 2669 
Q 3034 2534 3370 2195 
Q 3706 1856 3706 1288 
Q 3706 609 3251 259 
Q 2797 -91 1919 -91 
Q 1588 -91 1214 -16 
Q 841 59 441 206 
L 441 856 
Q 825 641 1194 531 
Q 1563 422 1919 422 
Q 2459 422 2753 634 
Q 3047 847 3047 1241 
Q 3047 1584 2836 1778 
Q 2625 1972 2144 2069 
L 1759 2144 
Q 1053 2284 737 2584 
Q 422 2884 422 3419 
Q 422 4038 858 4394 
Q 1294 4750 2059 4750 
Q 2388 4750 2728 4690 
Q 3069 4631 3425 4513 
z
" transform="scale(0.015625)"/>
       <path id="DejaVuSans-6d" d="M 3328 2828 
Q 3544 3216 3844 3400 
Q 4144 3584 4550 3584 
Q 5097 3584 5394 3201 
Q 5691 2819 5691 2113 
L 5691 0 
L 5113 0 
L 5113 2094 
Q 5113 2597 4934 2840 
Q 4756 3084 4391 3084 
Q 3944 3084 3684 2787 
Q 3425 2491 3425 1978 
L 3425 0 
L 2847 0 
L 2847 2094 
Q 2847 2600 2669 2842 
Q 2491 3084 2119 3084 
Q 1678 3084 1418 2786 
Q 1159 2488 1159 1978 
L 1159 0 
L 581 0 
L 581 3500 
L 1159 3500 
L 1159 2956 
Q 1356 3278 1631 3431 
Q 1906 3584 2284 3584 
Q 2666 3584 2933 3390 
Q 3200 3197 3328 2828 
z
" transform="scale(0.015625)"/>
       <path id="DejaVuSans-66" d="M 2375 4863 
L 2375 4384 
L 1825 4384 
Q 1516 4384 1395 4259 
Q 1275 4134 1275 3809 
L 1275 3500 
L 2222 3500 
L 2222 3053 
L 1275 3053 
L 1275 0 
L 697 0 
L 697 3053 
L 147 3053 
L 147 3500 
L 697 3500 
L 697 3744 
Q 697 4328 969 4595 
Q 1241 4863 1831 4863 
L 2375 4863 
z
" transform="scale(0.015625)"/>
      </defs>
      <use xlink:href="#DejaVuSans-53"/>
      <use xlink:href="#DejaVuSans-75" x="63.476562"/>
      <use xlink:href="#DejaVuSans-6d" x="126.855469"/>
      <use xlink:href="#DejaVuSans-20" x="224.267578"/>
      <use xlink:href="#DejaVuSans-6f" x="256.054688"/>
      <use xlink:href="#DejaVuSans-66" x="317.236328"/>
      <use xlink:href="#DejaVuSans-20" x="352.441406"/>
      <use xlink:href="#DejaVuSans-6f" x="384.228516"/>
      <use xlink:href="#DejaVuSans-70" x="445.410156"/>
      <use xlink:href="#DejaVuSans-61" x="508.886719"/>
      <use xlink:href="#DejaVuSans-63" x="570.166016"/>
      <use xlink:href="#DejaVuSans-69" x="625.146484"/>
      <use xlink:href="#DejaVuSans-74" x="652.929688"/>
      <use xlink:href="#DejaVuSans-69" x="692.138672"/>
      <use xlink:href="#DejaVuSans-65" x="719.921875"/>
      <use xlink:href="#DejaVuSans-73" x="781.445312"/>
     </g>
    </g>
    <g id="line2d_8">
     <path d="M 280.660625 195.804563 
L 290.660625 195.804563 
L 300.660625 195.804563 
" style="fill: none; stroke-dasharray: 2,3.3; stroke-dashoffset: 0; stroke: #bbbbbb; stroke-width: 2"/>
    </g>
    <g id="text_5">
     <!-- Opacity cutoff -->
     <g transform="translate(308.660625 199.304563) scale(0.1 -0.1)">
      <use xlink:href="#DejaVuSans-4f"/>
      <use xlink:href="#DejaVuSans-70" x="78.710938"/>
      <use xlink:href="#DejaVuSans-61" x="142.1875"/>
      <use xlink:href="#DejaVuSans-63" x="203.466797"/>
      <use xlink:href="#DejaVuSans-69" x="258.447266"/>
      <use xlink:href="#DejaVuSans-74" x="286.230469"/>
      <use xlink:href="#DejaVuSans-79" x="325.439453"/>
      <use xlink:href="#DejaVuSans-20" x="384.619141"/>
      <use xlink:href="#DejaVuSans-63" x="416.40625"/>
      <use xlink:href="#DejaVuSans-75" x="471.386719"/>
      <use xlink:href="#DejaVuSans-74" x="534.765625"/>
      <use xlink:href="#DejaVuSans-6f" x="573.974609"/>
      <use xlink:href="#DejaVuSans-66" x="635.15625"/>
      <use xlink:href="#DejaVuSans-66" x="670.361328"/>
     </g>
    </g>
   </g>
  </g>
 </g>
 <defs>
  <clipPath id="p3f38e6b91f">
   <rect x="57.6" y="41.472" width="357.12" height="266.112"/>
  </clipPath>
 </defs>
</svg>
