<?xml version="1.0" encoding="utf-8" standalone="no"?>
<!DOCTYPE svg PUBLIC "-//W3C//DTD SVG 1.1//EN"
  "http://www.w3.org/Graphics/SVG/1.1/DTD/svg11.dtd">
<svg xmlns:xlink="http://www.w3.org/1999/xlink" width="460.8pt" height="345.6pt" viewBox="0 0 460.8 345.6" xmlns="http://www.w3.org/2000/svg" version="1.1">
 <metadata>
  <rdf:RDF xmlns:dc="http://purl.org/dc/elements/1.1/" xmlns:cc="http://creativecommons.org/ns#" xmlns:rdf="http://www.w3.org/1999/02/22-rdf-syntax-ns#">
   <cc:Work>
    <dc:type rdf:resource="http://purl.org/dc/dcmitype/StillImage"/>
    <dc:date>2024-09-06T09:10:50.354825</dc:date>
    <dc:format>image/svg+xml</dc:format>
    <dc:creator>
     <cc:Agent>
      <dc:title>Matplotlib v3.7.1, https://matplotlib.org/</dc:title>
     </cc:Agent>
    </dc:creator>
   </cc:Work>
  </rdf:RDF>
 </metadata>
 <defs>
  <style type="text/css">*{stroke-linejoin: round; stroke-linecap: butt}</style>
 </defs>
 <g id="figure_1">
  <g id="patch_1">
   <path d="M 0 345.6 
L 460.8 345.6 
L 460.8 0 
L 0 0 
z
" style="fill: #ffffff"/>
  </g>
  <g id="axes_1">
   <g id="line2d_1">
    <path d="M 73.832727 295.406845 
L 83.257133 295.180313 
L 89.106765 294.826008 
L 93.656478 294.324899 
L 97.231253 293.71252 
L 100.481048 292.919173 
L 103.080885 292.071682 
L 105.680721 290.986356 
L 107.955577 289.800549 
L 110.230434 288.353006 
L 112.180311 286.870968 
L 114.130188 285.135008 
L 116.080066 283.11377 
L 118.029943 280.774548 
L 119.97982 278.083759 
L 121.929697 275.007539 
L 123.879574 271.512457 
L 125.829451 267.566337 
L 127.779328 263.139196 
L 129.729206 258.204277 
L 132.004062 251.775467 
L 134.278919 244.599207 
L 136.553776 236.662205 
L 138.828632 227.966366 
L 141.428468 217.124856 
L 144.353284 203.851055 
L 147.603079 187.933824 
L 151.502834 167.601801 
L 162.877117 107.294051 
L 165.801933 93.492271 
L 168.07679 83.779054 
L 170.026667 76.31932 
L 171.976544 69.772242 
L 173.601441 65.083237 
L 175.226339 61.143678 
L 176.526257 58.559735 
L 177.826175 56.49967 
L 178.801114 55.307032 
L 179.776052 54.421693 
L 180.750991 53.847089 
L 181.72593 53.585452 
L 182.700868 53.637802 
L 183.675807 54.003935 
L 184.650745 54.682425 
L 185.625684 55.670638 
L 186.600622 56.964741 
L 187.900541 59.157236 
L 189.200459 61.869535 
L 190.500377 65.083237 
L 192.125274 69.772242 
L 193.750172 75.162017 
L 195.700049 82.476811 
L 197.974906 92.044397 
L 200.574742 104.117654 
L 203.499558 118.806816 
L 207.724292 141.271873 
L 215.5238 182.956959 
L 219.098575 200.758936 
L 222.023391 214.269972 
L 224.623227 225.344707 
L 227.223063 235.466148 
L 229.49792 243.512057 
L 231.772776 250.796509 
L 234.047633 257.330774 
L 236.32249 263.139196 
L 238.272367 267.566337 
L 240.222244 271.512457 
L 242.172121 275.007539 
L 244.121998 278.083759 
L 246.071876 280.774548 
L 248.021753 283.11377 
L 249.97163 285.135008 
L 251.921507 286.870968 
L 254.196364 288.577434 
L 256.47122 289.985006 
L 258.746077 291.136751 
L 261.345913 292.189628 
L 263.945749 293.010721 
L 266.870565 293.71252 
L 270.44534 294.324899 
L 274.670074 294.798168 
L 279.869746 295.137267 
L 287.019296 295.357727 
L 299.043538 295.466959 
L 339.01602 295.487988 
L 398.487273 295.488 
L 398.487273 295.488 
" clip-path="url(#p8df31c4958)" style="fill: none; stroke: #1565c0; stroke-opacity: 0.4; stroke-width: 4; stroke-linecap: square"/>
   </g>
   <g id="line2d_2">
    <path d="M 73.832727 295.487996 
L 130.054185 295.377432 
L 138.503653 295.129574 
L 144.028305 294.754396 
L 148.253038 294.254573 
L 151.827813 293.609643 
L 154.752629 292.87228 
L 157.352465 292.011325 
L 159.952301 290.909467 
L 162.227158 289.706328 
L 164.502015 288.238465 
L 166.451892 286.736425 
L 168.401769 284.977911 
L 170.351646 282.931439 
L 172.301523 280.56421 
L 174.2514 277.842594 
L 176.201278 274.732735 
L 178.151155 271.201272 
L 180.101032 267.216174 
L 182.050909 262.747688 
L 184.000786 257.769373 
L 186.275643 251.287901 
L 188.5505 244.057577 
L 190.825356 236.066114 
L 193.100213 227.316595 
L 195.700049 216.416405 
L 198.624865 203.082619 
L 201.87466 187.110129 
L 205.774414 166.733908 
L 216.823718 108.096777 
L 219.748534 94.22323 
L 222.023391 84.438606 
L 223.973268 76.907517 
L 225.923145 70.280546 
L 227.548043 65.519161 
L 229.17294 61.502668 
L 230.472858 58.854406 
L 231.772776 56.728013 
L 232.747715 55.484575 
L 233.722654 54.547749 
L 234.697592 53.921168 
L 235.672531 53.607266 
L 236.647469 53.607266 
L 237.622408 53.921168 
L 238.597346 54.547749 
L 239.572285 55.484575 
L 240.547224 56.728013 
L 241.522162 58.273254 
L 242.82208 60.792604 
L 244.121998 63.820645 
L 245.746896 68.289613 
L 247.371794 73.474667 
L 249.321671 80.566565 
L 251.271548 88.509844 
L 253.546405 98.702892 
L 256.47122 112.980047 
L 260.045995 131.651988 
L 271.420278 192.015348 
L 274.670074 207.64598 
L 277.594889 220.613553 
L 280.194726 231.158311 
L 282.794562 240.726064 
L 285.069419 248.281927 
L 287.344275 255.081946 
L 289.619132 261.146087 
L 291.893989 266.505756 
L 293.843866 270.569428 
L 295.793743 274.174322 
L 297.74362 277.352157 
L 299.693497 280.136133 
L 301.643374 282.560076 
L 303.593251 284.657701 
L 305.543129 286.461981 
L 307.817985 288.238465 
L 310.092842 289.706328 
L 312.367699 290.909467 
L 314.967535 292.011325 
L 317.567371 292.87228 
L 320.492187 293.609643 
L 323.741982 294.205573 
L 327.641736 294.692085 
L 332.516429 295.062186 
L 339.01602 295.312171 
L 349.090385 295.448175 
L 374.113808 295.487453 
L 398.487273 295.487996 
L 398.487273 295.487996 
" clip-path="url(#p8df31c4958)" style="fill: none; stroke: #ff3366; stroke-opacity: 0.4; stroke-width: 4; stroke-linecap: square"/>
   </g>
   <g id="line2d_3">
    <path d="M 73.832727 295.406841 
L 83.257133 295.180285 
L 89.106765 294.825915 
L 93.656478 294.324671 
L 97.231253 293.712065 
L 100.481048 292.918337 
L 103.080885 292.070335 
L 105.680721 290.984203 
L 107.955577 289.797332 
L 110.230434 288.348231 
L 112.180311 286.864307 
L 114.130188 285.125763 
L 116.080066 283.101008 
L 118.029943 280.75702 
L 119.97982 278.059811 
L 121.929697 274.974989 
L 123.879574 271.468444 
L 125.829451 267.507132 
L 127.779328 263.059969 
L 129.729206 258.098805 
L 132.004062 251.629162 
L 134.278919 244.397691 
L 136.553776 236.386599 
L 138.828632 227.592084 
L 141.428468 216.598433 
L 144.028305 204.644957 
L 146.95312 190.150177 
L 150.202916 172.939986 
L 154.427649 149.317422 
L 165.151974 88.719763 
L 168.401769 71.966722 
L 171.001605 59.617058 
L 172.301523 53.852934 
L 172.626503 53.568 
L 245.746896 53.568 
L 246.071876 54.557498 
L 248.671712 66.435915 
L 251.596527 81.020831 
L 254.846323 98.426573 
L 259.396036 124.124528 
L 267.845504 172.053789 
L 271.420278 190.982107 
L 274.670074 206.956148 
L 277.594889 220.139885 
L 280.194726 230.822509 
L 282.469582 239.337762 
L 284.744439 247.069209 
L 287.019296 254.025897 
L 289.294152 260.230075 
L 291.569009 265.714885 
L 293.518886 269.875003 
L 295.468763 273.56711 
L 297.41864 276.823546 
L 299.368518 279.67808 
L 301.318395 282.165076 
L 303.268272 284.318765 
L 305.218149 286.172633 
L 307.168026 287.758916 
L 309.442883 289.31209 
L 311.71774 290.587835 
L 313.992596 291.627388 
L 316.592432 292.573562 
L 319.517248 293.387108 
L 322.767043 294.047505 
L 326.666798 294.589378 
L 331.216511 294.983235 
L 337.066143 295.257328 
L 345.84059 295.422717 
L 363.714464 295.484396 
L 398.487273 295.487996 
L 398.487273 295.487996 
" clip-path="url(#p8df31c4958)" style="fill: none; stroke: #7f00ff; stroke-width: 4; stroke-linecap: square"/>
   </g>
   <g id="line2d_4">
    <path d="M 73.832727 53.568 
L 398.487273 53.568 
L 398.487273 53.568 
" clip-path="url(#p8df31c4958)" style="fill: none; stroke-dasharray: 2,3.3; stroke-dashoffset: 0; stroke: #bbbbbb; stroke-width: 2"/>
   </g>
   <g id="text_1">
    <!-- Perceived opacity -->
    <g transform="translate(183.092813 35.472) scale(0.12 -0.12)">
     <defs>
      <path id="DejaVuSans-50" d="M 1259 4147 
L 1259 2394 
L 2053 2394 
Q 2494 2394 2734 2622 
Q 2975 2850 2975 3272 
Q 2975 3691 2734 3919 
Q 2494 4147 2053 4147 
L 1259 4147 
z
M 628 4666 
L 2053 4666 
Q 2838 4666 3239 4311 
Q 3641 3956 3641 3272 
Q 3641 2581 3239 2228 
Q 2838 1875 2053 1875 
L 1259 1875 
L 1259 0 
L 628 0 
L 628 4666 
z
" transform="scale(0.015625)"/>
      <path id="DejaVuSans-65" d="M 3597 1894 
L 3597 1613 
L 953 1613 
Q 991 1019 1311 708 
Q 1631 397 2203 397 
Q 2534 397 2845 478 
Q 3156 559 3463 722 
L 3463 178 
Q 3153 47 2828 -22 
Q 2503 -91 2169 -91 
Q 1331 -91 842 396 
Q 353 884 353 1716 
Q 353 2575 817 3079 
Q 1281 3584 2069 3584 
Q 2775 3584 3186 3129 
Q 3597 2675 3597 1894 
z
M 3022 2063 
Q 3016 2534 2758 2815 
Q 2500 3097 2075 3097 
Q 1594 3097 1305 2825 
Q 1016 2553 972 2059 
L 3022 2063 
z
" transform="scale(0.015625)"/>
      <path id="DejaVuSans-72" d="M 2631 2963 
Q 2534 3019 2420 3045 
Q 2306 3072 2169 3072 
Q 1681 3072 1420 2755 
Q 1159 2438 1159 1844 
L 1159 0 
L 581 0 
L 581 3500 
L 1159 3500 
L 1159 2956 
Q 1341 3275 1631 3429 
Q 1922 3584 2338 3584 
Q 2397 3584 2469 3576 
Q 2541 3569 2628 3553 
L 2631 2963 
z
" transform="scale(0.015625)"/>
      <path id="DejaVuSans-63" d="M 3122 3366 
L 3122 2828 
Q 2878 2963 2633 3030 
Q 2388 3097 2138 3097 
Q 1578 3097 1268 2742 
Q 959 2388 959 1747 
Q 959 1106 1268 751 
Q 1578 397 2138 397 
Q 2388 397 2633 464 
Q 2878 531 3122 666 
L 3122 134 
Q 2881 22 2623 -34 
Q 2366 -91 2075 -91 
Q 1284 -91 818 406 
Q 353 903 353 1747 
Q 353 2603 823 3093 
Q 1294 3584 2113 3584 
Q 2378 3584 2631 3529 
Q 2884 3475 3122 3366 
z
" transform="scale(0.015625)"/>
      <path id="DejaVuSans-69" d="M 603 3500 
L 1178 3500 
L 1178 0 
L 603 0 
L 603 3500 
z
M 603 4863 
L 1178 4863 
L 1178 4134 
L 603 4134 
L 603 4863 
z
" transform="scale(0.015625)"/>
      <path id="DejaVuSans-76" d="M 191 3500 
L 800 3500 
L 1894 563 
L 2988 3500 
L 3597 3500 
L 2284 0 
L 1503 0 
L 191 3500 
z
" transform="scale(0.015625)"/>
      <path id="DejaVuSans-64" d="M 2906 2969 
L 2906 4863 
L 3481 4863 
L 3481 0 
L 2906 0 
L 2906 525 
Q 2725 213 2448 61 
Q 2172 -91 1784 -91 
Q 1150 -91 751 415 
Q 353 922 353 1747 
Q 353 2572 751 3078 
Q 1150 3584 1784 3584 
Q 2172 3584 2448 3432 
Q 2725 3281 2906 2969 
z
M 947 1747 
Q 947 1113 1208 752 
Q 1469 391 1925 391 
Q 2381 391 2643 752 
Q 2906 1113 2906 1747 
Q 2906 2381 2643 2742 
Q 2381 3103 1925 3103 
Q 1469 3103 1208 2742 
Q 947 2381 947 1747 
z
" transform="scale(0.015625)"/>
      <path id="DejaVuSans-20" transform="scale(0.015625)"/>
      <path id="DejaVuSans-6f" d="M 1959 3097 
Q 1497 3097 1228 2736 
Q 959 2375 959 1747 
Q 959 1119 1226 758 
Q 1494 397 1959 397 
Q 2419 397 2687 759 
Q 2956 1122 2956 1747 
Q 2956 2369 2687 2733 
Q 2419 3097 1959 3097 
z
M 1959 3584 
Q 2709 3584 3137 3096 
Q 3566 2609 3566 1747 
Q 3566 888 3137 398 
Q 2709 -91 1959 -91 
Q 1206 -91 779 398 
Q 353 888 353 1747 
Q 353 2609 779 3096 
Q 1206 3584 1959 3584 
z
" transform="scale(0.015625)"/>
      <path id="DejaVuSans-70" d="M 1159 525 
L 1159 -1331 
L 581 -1331 
L 581 3500 
L 1159 3500 
L 1159 2969 
Q 1341 3281 1617 3432 
Q 1894 3584 2278 3584 
Q 2916 3584 3314 3078 
Q 3713 2572 3713 1747 
Q 3713 922 3314 415 
Q 2916 -91 2278 -91 
Q 1894 -91 1617 61 
Q 1341 213 1159 525 
z
M 3116 1747 
Q 3116 2381 2855 2742 
Q 2594 3103 2138 3103 
Q 1681 3103 1420 2742 
Q 1159 2381 1159 1747 
Q 1159 1113 1420 752 
Q 1681 391 2138 391 
Q 2594 391 2855 752 
Q 3116 1113 3116 1747 
z
" transform="scale(0.015625)"/>
      <path id="DejaVuSans-61" d="M 2194 1759 
Q 1497 1759 1228 1600 
Q 959 1441 959 1056 
Q 959 750 1161 570 
Q 1363 391 1709 391 
Q 2188 391 2477 730 
Q 2766 1069 2766 1631 
L 2766 1759 
L 2194 1759 
z
M 3341 1997 
L 3341 0 
L 2766 0 
L 2766 531 
Q 2569 213 2275 61 
Q 1981 -91 1556 -91 
Q 1019 -91 701 211 
Q 384 513 384 1019 
Q 384 1609 779 1909 
Q 1175 2209 1959 2209 
L 2766 2209 
L 2766 2266 
Q 2766 2663 2505 2880 
Q 2244 3097 1772 3097 
Q 1472 3097 1187 3025 
Q 903 2953 641 2809 
L 641 3341 
Q 956 3463 1253 3523 
Q 1550 3584 1831 3584 
Q 2591 3584 2966 3190 
Q 3341 2797 3341 1997 
z
" transform="scale(0.015625)"/>
      <path id="DejaVuSans-74" d="M 1172 4494 
L 1172 3500 
L 2356 3500 
L 2356 3053 
L 1172 3053 
L 1172 1153 
Q 1172 725 1289 603 
Q 1406 481 1766 481 
L 2356 481 
L 2356 0 
L 1766 0 
Q 1100 0 847 248 
Q 594 497 594 1153 
L 594 3053 
L 172 3053 
L 172 3500 
L 594 3500 
L 594 4494 
L 1172 4494 
z
" transform="scale(0.015625)"/>
      <path id="DejaVuSans-79" d="M 2059 -325 
Q 1816 -950 1584 -1140 
Q 1353 -1331 966 -1331 
L 506 -1331 
L 506 -850 
L 844 -850 
Q 1081 -850 1212 -737 
Q 1344 -625 1503 -206 
L 1606 56 
L 191 3500 
L 800 3500 
L 1894 763 
L 2988 3500 
L 3597 3500 
L 2059 -325 
z
" transform="scale(0.015625)"/>
     </defs>
     <use xlink:href="#DejaVuSans-50"/>
     <use xlink:href="#DejaVuSans-65" x="56.677734"/>
     <use xlink:href="#DejaVuSans-72" x="118.201172"/>
     <use xlink:href="#DejaVuSans-63" x="157.064453"/>
     <use xlink:href="#DejaVuSans-65" x="212.044922"/>
     <use xlink:href="#DejaVuSans-69" x="273.568359"/>
     <use xlink:href="#DejaVuSans-76" x="301.351562"/>
     <use xlink:href="#DejaVuSans-65" x="360.53125"/>
     <use xlink:href="#DejaVuSans-64" x="422.054688"/>
     <use xlink:href="#DejaVuSans-20" x="485.53125"/>
     <use xlink:href="#DejaVuSans-6f" x="517.318359"/>
     <use xlink:href="#DejaVuSans-70" x="578.5"/>
     <use xlink:href="#DejaVuSans-61" x="641.976562"/>
     <use xlink:href="#DejaVuSans-63" x="703.255859"/>
     <use xlink:href="#DejaVuSans-69" x="758.236328"/>
     <use xlink:href="#DejaVuSans-74" x="786.019531"/>
     <use xlink:href="#DejaVuSans-79" x="825.228516"/>
    </g>
   </g>
   <g id="legend_1">
    <g id="patch_2">
     <path d="M 278.660625 205.38425 
L 407.72 205.38425 
Q 409.72 205.38425 409.72 203.38425 
L 409.72 145.67175 
Q 409.72 143.67175 407.72 143.67175 
L 278.660625 143.67175 
Q 276.660625 143.67175 276.660625 145.67175 
L 276.660625 203.38425 
Q 276.660625 205.38425 278.660625 205.38425 
z
" style="fill: #ffffff; opacity: 0.8; stroke: #cccccc; stroke-linejoin: miter"/>
    </g>
    <g id="line2d_5">
     <path d="M 280.660625 151.770188 
L 290.660625 151.770188 
L 300.660625 151.770188 
" style="fill: none; stroke: #1565c0; stroke-opacity: 0.4; stroke-width: 4; stroke-linecap: square"/>
    </g>
    <g id="text_2">
     <!-- Opacity Gaussian 1 -->
     <g transform="translate(308.660625 155.270188) scale(0.1 -0.1)">
      <defs>
       <path id="DejaVuSans-4f" d="M 2522 4238 
Q 1834 4238 1429 3725 
Q 1025 3213 1025 2328 
Q 1025 1447 1429 934 
Q 1834 422 2522 422 
Q 3209 422 3611 934 
Q 4013 1447 4013 2328 
Q 4013 3213 3611 3725 
Q 3209 4238 2522 4238 
z
M 2522 4750 
Q 3503 4750 4090 4092 
Q 4678 3434 4678 2328 
Q 4678 1225 4090 567 
Q 3503 -91 2522 -91 
Q 1538 -91 948 565 
Q 359 1222 359 2328 
Q 359 3434 948 4092 
Q 1538 4750 2522 4750 
z
" transform="scale(0.015625)"/>
       <path id="DejaVuSans-47" d="M 3809 666 
L 3809 1919 
L 2778 1919 
L 2778 2438 
L 4434 2438 
L 4434 434 
Q 4069 175 3628 42 
Q 3188 -91 2688 -91 
Q 1594 -91 976 548 
Q 359 1188 359 2328 
Q 359 3472 976 4111 
Q 1594 4750 2688 4750 
Q 3144 4750 3555 4637 
Q 3966 4525 4313 4306 
L 4313 3634 
Q 3963 3931 3569 4081 
Q 3175 4231 2741 4231 
Q 1884 4231 1454 3753 
Q 1025 3275 1025 2328 
Q 1025 1384 1454 906 
Q 1884 428 2741 428 
Q 3075 428 3337 486 
Q 3600 544 3809 666 
z
" transform="scale(0.015625)"/>
       <path id="DejaVuSans-75" d="M 544 1381 
L 544 3500 
L 1119 3500 
L 1119 1403 
Q 1119 906 1312 657 
Q 1506 409 1894 409 
Q 2359 409 2629 706 
Q 2900 1003 2900 1516 
L 2900 3500 
L 3475 3500 
L 3475 0 
L 2900 0 
L 2900 538 
Q 2691 219 2414 64 
Q 2138 -91 1772 -91 
Q 1169 -91 856 284 
Q 544 659 544 1381 
z
M 1991 3584 
L 1991 3584 
z
" transform="scale(0.015625)"/>
       <path id="DejaVuSans-73" d="M 2834 3397 
L 2834 2853 
Q 2591 2978 2328 3040 
Q 2066 3103 1784 3103 
Q 1356 3103 1142 2972 
Q 928 2841 928 2578 
Q 928 2378 1081 2264 
Q 1234 2150 1697 2047 
L 1894 2003 
Q 2506 1872 2764 1633 
Q 3022 1394 3022 966 
Q 3022 478 2636 193 
Q 2250 -91 1575 -91 
Q 1294 -91 989 -36 
Q 684 19 347 128 
L 347 722 
Q 666 556 975 473 
Q 1284 391 1588 391 
Q 1994 391 2212 530 
Q 2431 669 2431 922 
Q 2431 1156 2273 1281 
Q 2116 1406 1581 1522 
L 1381 1569 
Q 847 1681 609 1914 
Q 372 2147 372 2553 
Q 372 3047 722 3315 
Q 1072 3584 1716 3584 
Q 2034 3584 2315 3537 
Q 2597 3491 2834 3397 
z
" transform="scale(0.015625)"/>
       <path id="DejaVuSans-6e" d="M 3513 2113 
L 3513 0 
L 2938 0 
L 2938 2094 
Q 2938 2591 2744 2837 
Q 2550 3084 2163 3084 
Q 1697 3084 1428 2787 
Q 1159 2491 1159 1978 
L 1159 0 
L 581 0 
L 581 3500 
L 1159 3500 
L 1159 2956 
Q 1366 3272 1645 3428 
Q 1925 3584 2291 3584 
Q 2894 3584 3203 3211 
Q 3513 2838 3513 2113 
z
" transform="scale(0.015625)"/>
       <path id="DejaVuSans-31" d="M 794 531 
L 1825 531 
L 1825 4091 
L 703 3866 
L 703 4441 
L 1819 4666 
L 2450 4666 
L 2450 531 
L 3481 531 
L 3481 0 
L 794 0 
L 794 531 
z
" transform="scale(0.015625)"/>
      </defs>
      <use xlink:href="#DejaVuSans-4f"/>
      <use xlink:href="#DejaVuSans-70" x="78.710938"/>
      <use xlink:href="#DejaVuSans-61" x="142.1875"/>
      <use xlink:href="#DejaVuSans-63" x="203.466797"/>
      <use xlink:href="#DejaVuSans-69" x="258.447266"/>
      <use xlink:href="#DejaVuSans-74" x="286.230469"/>
      <use xlink:href="#DejaVuSans-79" x="325.439453"/>
      <use xlink:href="#DejaVuSans-20" x="384.619141"/>
      <use xlink:href="#DejaVuSans-47" x="416.40625"/>
      <use xlink:href="#DejaVuSans-61" x="493.896484"/>
      <use xlink:href="#DejaVuSans-75" x="555.175781"/>
      <use xlink:href="#DejaVuSans-73" x="618.554688"/>
      <use xlink:href="#DejaVuSans-73" x="670.654297"/>
      <use xlink:href="#DejaVuSans-69" x="722.753906"/>
      <use xlink:href="#DejaVuSans-61" x="750.537109"/>
      <use xlink:href="#DejaVuSans-6e" x="811.816406"/>
      <use xlink:href="#DejaVuSans-20" x="875.195312"/>
      <use xlink:href="#DejaVuSans-31" x="906.982422"/>
     </g>
    </g>
    <g id="line2d_6">
     <path d="M 280.660625 166.448313 
L 290.660625 166.448313 
L 300.660625 166.448313 
" style="fill: none; stroke: #ff3366; stroke-opacity: 0.4; stroke-width: 4; stroke-linecap: square"/>
    </g>
    <g id="text_3">
     <!-- Opacity Gaussian 2 -->
     <g transform="translate(308.660625 169.948313) scale(0.1 -0.1)">
      <defs>
       <path id="DejaVuSans-32" d="M 1228 531 
L 3431 531 
L 3431 0 
L 469 0 
L 469 531 
Q 828 903 1448 1529 
Q 2069 2156 2228 2338 
Q 2531 2678 2651 2914 
Q 2772 3150 2772 3378 
Q 2772 3750 2511 3984 
Q 2250 4219 1831 4219 
Q 1534 4219 1204 4116 
Q 875 4013 500 3803 
L 500 4441 
Q 881 4594 1212 4672 
Q 1544 4750 1819 4750 
Q 2544 4750 2975 4387 
Q 3406 4025 3406 3419 
Q 3406 3131 3298 2873 
Q 3191 2616 2906 2266 
Q 2828 2175 2409 1742 
Q 1991 1309 1228 531 
z
" transform="scale(0.015625)"/>
      </defs>
      <use xlink:href="#DejaVuSans-4f"/>
      <use xlink:href="#DejaVuSans-70" x="78.710938"/>
      <use xlink:href="#DejaVuSans-61" x="142.1875"/>
      <use xlink:href="#DejaVuSans-63" x="203.466797"/>
      <use xlink:href="#DejaVuSans-69" x="258.447266"/>
      <use xlink:href="#DejaVuSans-74" x="286.230469"/>
      <use xlink:href="#DejaVuSans-79" x="325.439453"/>
      <use xlink:href="#DejaVuSans-20" x="384.619141"/>
      <use xlink:href="#DejaVuSans-47" x="416.40625"/>
      <use xlink:href="#DejaVuSans-61" x="493.896484"/>
      <use xlink:href="#DejaVuSans-75" x="555.175781"/>
      <use xlink:href="#DejaVuSans-73" x="618.554688"/>
      <use xlink:href="#DejaVuSans-73" x="670.654297"/>
      <use xlink:href="#DejaVuSans-69" x="722.753906"/>
      <use xlink:href="#DejaVuSans-61" x="750.537109"/>
      <use xlink:href="#DejaVuSans-6e" x="811.816406"/>
      <use xlink:href="#DejaVuSans-20" x="875.195312"/>
      <use xlink:href="#DejaVuSans-32" x="906.982422"/>
     </g>
    </g>
    <g id="line2d_7">
     <path d="M 280.660625 181.126438 
L 290.660625 181.126438 
L 300.660625 181.126438 
" style="fill: none; stroke: #7f00ff; stroke-width: 4; stroke-linecap: square"/>
    </g>
    <g id="text_4">
     <!-- Saturated opacity -->
     <g transform="translate(308.660625 184.626438) scale(0.1 -0.1)">
      <defs>
       <path id="DejaVuSans-53" d="M 3425 4513 
L 3425 3897 
Q 3066 4069 2747 4153 
Q 2428 4238 2131 4238 
Q 1616 4238 1336 4038 
Q 1056 3838 1056 3469 
Q 1056 3159 1242 3001 
Q 1428 2844 1947 2747 
L 2328 2669 
Q 3034 2534 3370 2195 
Q 3706 1856 3706 1288 
Q 3706 609 3251 259 
Q 2797 -91 1919 -91 
Q 1588 -91 1214 -16 
Q 841 59 441 206 
L 441 856 
Q 825 641 1194 531 
Q 1563 422 1919 422 
Q 2459 422 2753 634 
Q 3047 847 3047 1241 
Q 3047 1584 2836 1778 
Q 2625 1972 2144 2069 
L 1759 2144 
Q 1053 2284 737 2584 
Q 422 2884 422 3419 
Q 422 4038 858 4394 
Q 1294 4750 2059 4750 
Q 2388 4750 2728 4690 
Q 3069 4631 3425 4513 
z
" transform="scale(0.015625)"/>
      </defs>
      <use xlink:href="#DejaVuSans-53"/>
      <use xlink:href="#DejaVuSans-61" x="63.476562"/>
      <use xlink:href="#DejaVuSans-74" x="124.755859"/>
      <use xlink:href="#DejaVuSans-75" x="163.964844"/>
      <use xlink:href="#DejaVuSans-72" x="227.34375"/>
      <use xlink:href="#DejaVuSans-61" x="268.457031"/>
      <use xlink:href="#DejaVuSans-74" x="329.736328"/>
      <use xlink:href="#DejaVuSans-65" x="368.945312"/>
      <use xlink:href="#DejaVuSans-64" x="430.46875"/>
      <use xlink:href="#DejaVuSans-20" x="493.945312"/>
      <use xlink:href="#DejaVuSans-6f" x="525.732422"/>
      <use xlink:href="#DejaVuSans-70" x="586.914062"/>
      <use xlink:href="#DejaVuSans-61" x="650.390625"/>
      <use xlink:href="#DejaVuSans-63" x="711.669922"/>
      <use xlink:href="#DejaVuSans-69" x="766.650391"/>
      <use xlink:href="#DejaVuSans-74" x="794.433594"/>
      <use xlink:href="#DejaVuSans-79" x="833.642578"/>
     </g>
    </g>
    <g id="line2d_8">
     <path d="M 280.660625 195.804563 
L 290.660625 195.804563 
L 300.660625 195.804563 
" style="fill: none; stroke-dasharray: 2,3.3; stroke-dashoffset: 0; stroke: #bbbbbb; stroke-width: 2"/>
    </g>
    <g id="text_5">
     <!-- Opacity cutoff -->
     <g transform="translate(308.660625 199.304563) scale(0.1 -0.1)">
      <defs>
       <path id="DejaVuSans-66" d="M 2375 4863 
L 2375 4384 
L 1825 4384 
Q 1516 4384 1395 4259 
Q 1275 4134 1275 3809 
L 1275 3500 
L 2222 3500 
L 2222 3053 
L 1275 3053 
L 1275 0 
L 697 0 
L 697 3053 
L 147 3053 
L 147 3500 
L 697 3500 
L 697 3744 
Q 697 4328 969 4595 
Q 1241 4863 1831 4863 
L 2375 4863 
z
" transform="scale(0.015625)"/>
      </defs>
      <use xlink:href="#DejaVuSans-4f"/>
      <use xlink:href="#DejaVuSans-70" x="78.710938"/>
      <use xlink:href="#DejaVuSans-61" x="142.1875"/>
      <use xlink:href="#DejaVuSans-63" x="203.466797"/>
      <use xlink:href="#DejaVuSans-69" x="258.447266"/>
      <use xlink:href="#DejaVuSans-74" x="286.230469"/>
      <use xlink:href="#DejaVuSans-79" x="325.439453"/>
      <use xlink:href="#DejaVuSans-20" x="384.619141"/>
      <use xlink:href="#DejaVuSans-63" x="416.40625"/>
      <use xlink:href="#DejaVuSans-75" x="471.386719"/>
      <use xlink:href="#DejaVuSans-74" x="534.765625"/>
      <use xlink:href="#DejaVuSans-6f" x="573.974609"/>
      <use xlink:href="#DejaVuSans-66" x="635.15625"/>
      <use xlink:href="#DejaVuSans-66" x="670.361328"/>
     </g>
    </g>
   </g>
  </g>
 </g>
 <defs>
  <clipPath id="p8df31c4958">
   <rect x="57.6" y="41.472" width="357.12" height="266.112"/>
  </clipPath>
 </defs>
</svg>
