<?xml version="1.0" encoding="UTF-8" standalone="no"?>
<!-- Created with Inkscape (http://www.inkscape.org/) -->

<svg
   width="120mm"
   height="125mm"
   viewBox="0 0 120 125"
   version="1.1"
   id="svg5"
   xmlns:xlink="http://www.w3.org/1999/xlink"
   xmlns="http://www.w3.org/2000/svg"
   xmlns:svg="http://www.w3.org/2000/svg">
  <defs
     id="defs2">
    <linearGradient
       id="linearGradient1295">
      <stop
         style="stop-color:#0ff500;stop-opacity:1;"
         offset="0"
         id="stop1291" />
      <stop
         style="stop-color:#099f00;stop-opacity:0.65098039;"
         offset="0.52259141"
         id="stop1299" />
      <stop
         style="stop-color:#033e00;stop-opacity:0.25098039;"
         offset="0.84780395"
         id="stop1303" />
      <stop
         style="stop-color:#000000;stop-opacity:0;"
         offset="1"
         id="stop1293" />
    </linearGradient>
    <radialGradient
       xlink:href="#linearGradient1295"
       id="radialGradient1297"
       cx="77.240707"
       cy="144.04599"
       fx="77.240707"
       fy="144.04599"
       r="63.062321"
       gradientTransform="matrix(1,0,0,0.55532719,-48.593999,6.6640578)"
       gradientUnits="userSpaceOnUse" />
  </defs>
  <g
     id="layer1">
    <g
       id="path1004"
       transform="matrix(0.69780715,-0.71628568,0.43262893,0.90157208,0,0)">
      <path
         style="color:#000000;fill:url(#radialGradient1297);stroke-width:0.624129;-inkscape-stroke:none"
         d="M 91.396997,86.656555 A 62.750256,34.708157 0 0 1 28.646742,121.36471 62.750256,34.708157 0 0 1 -34.103514,86.656555 62.750256,34.708157 0 0 1 28.646742,51.948399 62.750256,34.708157 0 0 1 91.396997,86.656555 Z"
         id="path405" />
      <path
         style="color:#000000;fill:#7e7e7e;-inkscape-stroke:none"
         d="m 28.646484,51.636719 c -17.374629,0 -33.1071031,3.891604 -44.521484,10.205078 -11.414381,6.313474 -18.541016,15.077613 -18.541016,24.814453 0,9.73684 7.126635,18.50293 18.541016,24.81641 11.4143809,6.31347 27.146855,10.20507 44.521484,10.20507 17.37463,0 33.107104,-3.8916 44.521485,-10.20507 11.414381,-6.31348 18.541015,-15.07957 18.541015,-24.81641 0,-9.73684 -7.126634,-18.500979 -18.541015,-24.814453 C 61.753588,55.528323 46.021114,51.636719 28.646484,51.636719 Z m 0,0.623047 c 17.281346,0 32.923982,3.878558 44.220703,10.126953 11.296722,6.248395 18.216797,14.837604 18.216797,24.269531 0,9.431927 -6.920075,18.02114 -18.216797,24.26953 -11.296721,6.2484 -26.939357,10.12695 -44.220703,10.12695 -17.281345,0 -32.9239809,-3.87855 -44.220703,-10.12695 -11.296722,-6.24839 -18.216797,-14.837603 -18.216797,-24.26953 0,-9.431927 6.920075,-18.021136 18.216797,-24.269531 11.2967221,-6.248395 26.939358,-10.126953 44.220703,-10.126953 z"
         id="path407" />
    </g>
    <g
       id="path1006">
      <path
         style="color:#000000;fill:#000000;stroke-width:0.465;-inkscape-stroke:none"
         d="m 58.818805,58.432091 a 1.1396368,1.2821035 0 0 1 -1.139636,1.282103 1.1396368,1.2821035 0 0 1 -1.139637,-1.282103 1.1396368,1.2821035 0 0 1 1.139637,-1.282104 1.1396368,1.2821035 0 0 1 1.139636,1.282104 z"
         id="path399" />
      <path
         style="color:#000000;fill:#000000;-inkscape-stroke:none"
         d="m 57.679687,56.917969 c -0.770763,0 -1.373046,0.693896 -1.373046,1.513672 0,0.819775 0.602283,1.515625 1.373046,1.515625 0.770764,0 1.371094,-0.69585 1.371094,-1.515625 0,-0.819776 -0.60033,-1.513672 -1.371094,-1.513672 z m 0,0.464843 c 0.488044,0 0.906251,0.452433 0.90625,1.048829 0,0.596395 -0.418206,1.050781 -0.90625,1.050781 -0.488043,0 -0.908203,-0.454386 -0.908203,-1.050781 0,-0.596396 0.42016,-1.048829 0.908203,-1.048829 z"
         id="path401" />
    </g>
    <g
       id="path1747">
      <path
         style="color:#000000;fill:#000000;stroke-width:0.465;-inkscape-stroke:none"
         d="m 57.67904,58.737485 h 12.699928 l 10.054083,9e-6"
         id="path393" />
      <path
         style="color:#000000;fill:#000000;-inkscape-stroke:none"
         d="m 57.679687,58.505859 v 0.464844 H 70.378906 80.433594 V 58.505859 H 70.378906 Z"
         id="path395" />
      <g
         id="g385">
        <path
           style="color:#000000;fill:#000000;-inkscape-stroke:none"
           d="m 79.318359,57.177734 -0.328125,0.330078 1.230469,1.230469 -1.230469,1.230469 0.328125,0.328125 1.560547,-1.558594 z"
           id="path387" />
      </g>
    </g>
    <g
       id="path1749">
      <path
         style="color:#000000;fill:#000000;stroke-width:0.465;-inkscape-stroke:none"
         d="m 80.433051,59.266661 v -31.75"
         id="path379" />
      <path
         style="color:#000000;fill:#000000;-inkscape-stroke:none"
         d="m 80.201172,27.517578 v 31.75 h 0.464844 v -31.75 z"
         id="path381" />
      <g
         id="g371">
        <path
           style="color:#000000;fill:#000000;-inkscape-stroke:none"
           d="m 80.433594,27.072266 -1.560547,1.558593 0.330078,0.328125 1.230469,-1.230468 1.230468,1.230468 0.328125,-0.328125 z"
           id="path373" />
      </g>
    </g>
    <g
       aria-label="s"
       id="text3307"
       style="font-size:4.5861px;stroke:#000000;stroke-width:0.465">
      <g
         id="path360">
        <path
           style="color:#000000;fill:#000000;stroke:none;-inkscape-stroke:none"
           d="m 55.550775,55.348696 q 0,0.380646 -0.27058,0.587021 -0.265994,0.201788 -0.797981,0.201788 -0.261408,0 -0.449438,-0.03669 -0.18803,-0.0321 -0.37606,-0.110066 v -0.56409 q 0.201788,0.09172 0.435679,0.151341 0.233891,0.05962 0.412749,0.05962 0.201789,0 0.284338,-0.05962 0.08714,-0.05962 0.08714,-0.155927 0,-0.06421 -0.03669,-0.114653 -0.0321,-0.05045 -0.146755,-0.114652 -0.114652,-0.06421 -0.357716,-0.1651 -0.233891,-0.100894 -0.385232,-0.197202 -0.151341,-0.100894 -0.224719,-0.238477 -0.07338,-0.14217 -0.07338,-0.35313 0,-0.348544 0.270579,-0.522816 0.27058,-0.174271 0.720018,-0.174271 0.233891,0 0.444852,0.04586 0.21096,0.04586 0.435679,0.151341 l -0.206374,0.490713 q -0.183444,-0.07796 -0.348544,-0.128411 -0.165099,-0.05503 -0.334785,-0.05503 -0.302683,0 -0.302683,0.165099 0,0.05962 0.03669,0.110067 0.04127,0.04586 0.151341,0.100894 0.114653,0.05503 0.334786,0.146755 0.215546,0.08714 0.371474,0.183444 0.155927,0.09172 0.238477,0.233891 0.08714,0.137583 0.08714,0.362302 z"
           id="path365" />
        <path
           style="color:#000000;fill:#000000;stroke:none;-inkscape-stroke:none"
           d="m 54.642578,53.308594 c -0.329676,0 -0.61605,0.06498 -0.845703,0.21289 -0.239707,0.154389 -0.376953,0.424271 -0.376953,0.716797 0,0.167598 0.02919,0.324509 0.09961,0.460938 v 0.002 c 0.06905,0.129462 0.173733,0.237567 0.300781,0.322265 l 0.0039,0.002 0.002,0.002 c 0.115637,0.07359 0.254083,0.142195 0.417969,0.21289 v 0.002 h 0.002 c 0.157867,0.06553 0.273369,0.12035 0.333984,0.154297 -0.02533,0.0055 -0.01841,0.0078 -0.07422,0.0078 -0.09341,0 -0.213287,-0.01454 -0.355468,-0.05078 -0.143783,-0.03665 -0.277443,-0.08367 -0.398438,-0.138672 l -0.328125,-0.148438 v 1.080078 l 0.144531,0.05859 c 0.138304,0.05735 0.27849,0.09842 0.419922,0.123047 0.145231,0.02834 0.308992,0.04102 0.494141,0.04102 0.384054,0 0.700711,-0.06842 0.9375,-0.248047 h 0.002 c 0.235192,-0.179385 0.361328,-0.462631 0.361328,-0.771485 0,-0.177659 -0.03477,-0.343425 -0.121094,-0.482422 -0.07532,-0.128687 -0.183159,-0.234505 -0.314453,-0.3125 l -0.0039,-0.002 c -0.116763,-0.07179 -0.249367,-0.138074 -0.400391,-0.199218 h -0.002 c -0.03751,-0.01564 -0.05133,-0.02317 -0.08398,-0.03711 0.01233,0.0035 0.02473,0.0017 0.03711,0.0059 h 0.0039 l 0.002,0.002 c 0.101073,0.03089 0.210368,0.06993 0.326171,0.11914 l 0.214844,0.0918 0.382813,-0.912109 -0.203125,-0.09375 c -0.163413,-0.0767 -0.324324,-0.133176 -0.484375,-0.167969 -0.158069,-0.03436 -0.323018,-0.05273 -0.494141,-0.05273 z m 0,0.464843 c 0.140732,0 0.273273,0.01423 0.396484,0.04102 0.05474,0.0119 0.116013,0.04117 0.173829,0.06055 l -0.02344,0.06055 c -0.04918,-0.01759 -0.100773,-0.04005 -0.148437,-0.05469 -0.132735,-0.04424 -0.269946,-0.06641 -0.408204,-0.06641 -0.12203,0 -0.23024,0.0096 -0.33789,0.06836 -0.10765,0.05872 -0.197266,0.202051 -0.197266,0.328125 0,0.08744 0.03195,0.179181 0.08203,0.248047 l 0.0078,0.0098 0.0078,0.0078 c 0.06533,0.0726 0.132661,0.111254 0.21875,0.154297 h 0.002 l 0.002,0.002 c 0.08334,0.04 0.196938,0.0884 0.345703,0.150391 h 0.002 v 0.002 c 0.134166,0.05424 0.248015,0.110507 0.337891,0.166016 h 0.002 l 0.002,0.002 c 0.07416,0.04362 0.120281,0.09181 0.154297,0.150391 l 0.0039,0.0039 0.002,0.0039 c 0.02748,0.04338 0.05078,0.118521 0.05078,0.238281 0,0.198674 -0.05411,0.304609 -0.179687,0.400391 -0.118079,0.08903 -0.331904,0.154297 -0.65625,0.154297 -0.163394,0 -0.298822,-0.01067 -0.404297,-0.03125 h -0.0039 l -0.002,-0.002 c -0.06044,-0.01032 -0.122252,-0.03578 -0.183594,-0.05469 v -0.06445 c 0.05002,0.01553 0.09459,0.03755 0.146484,0.05078 0.169673,0.04325 0.325631,0.06836 0.470703,0.06836 0.155874,0 0.289206,-0.01361 0.416016,-0.103516 0.10521,-0.07311 0.1875,-0.212274 0.1875,-0.345703 0,-0.08445 -0.03095,-0.173511 -0.08008,-0.244141 -0.06361,-0.09654 -0.133776,-0.13773 -0.222656,-0.1875 -0.0913,-0.05113 -0.215277,-0.10776 -0.378907,-0.175781 l -0.0039,-0.002 c -0.143425,-0.06209 -0.258909,-0.122216 -0.34375,-0.175781 -0.0733,-0.04886 -0.119584,-0.09758 -0.148437,-0.150391 v -0.002 c -0.0271,-0.05313 -0.04687,-0.133276 -0.04687,-0.246094 0,-0.172198 0.043,-0.248197 0.164062,-0.326172 0.13112,-0.08445 0.324176,-0.138672 0.59375,-0.138672 z"
           id="path367" />
      </g>
    </g>
    <g
       aria-label="p"
       id="text3389"
       style="font-size:4.5861px;stroke:#000000;stroke-width:0.465">
      <g
         id="path351">
        <path
           style="color:#000000;fill:#000000;stroke:none;-inkscape-stroke:none"
           d="m 76.893499,22.320909 q 0.421922,0 0.683329,0.330199 0.261408,0.325614 0.261408,0.963082 0,0.637467 -0.27058,0.972253 -0.27058,0.330199 -0.692501,0.330199 -0.27058,0 -0.431093,-0.09631 -0.160514,-0.100894 -0.261408,-0.224719 h -0.03669 q 0.03669,0.192616 0.03669,0.366888 v 1.008942 H 75.499325 V 22.36677 h 0.554918 l 0.09631,0.325613 h 0.0321 q 0.100894,-0.151341 0.27058,-0.261407 0.169686,-0.110067 0.440265,-0.110067 z m -0.220132,0.545746 q -0.265994,0 -0.376061,0.1651 -0.10548,0.165099 -0.114652,0.504471 v 0.07338 q 0,0.362302 0.10548,0.559505 0.110067,0.192616 0.394405,0.192616 0.233891,0 0.343957,-0.192616 0.114653,-0.197203 0.114653,-0.564091 0,-0.738362 -0.467782,-0.738362 z"
           id="path356" />
        <path
           style="color:#000000;fill:#000000;stroke:none;-inkscape-stroke:none"
           d="m 76.892578,22.087891 c -0.211911,0 -0.405946,0.04435 -0.566406,0.148437 -0.02125,0.01378 -0.03255,0.03597 -0.05273,0.05078 l -0.04492,-0.152343 h -0.960938 v 4.068359 h 1.148438 v -1.162109 c 0.138469,0.06255 0.285674,0.107421 0.458984,0.107421 0.341932,0 0.655109,-0.148105 0.873047,-0.414062 v -0.002 c 0.225734,-0.279299 0.322265,-0.661267 0.322265,-1.119141 0,-0.456759 -0.09186,-0.832587 -0.3125,-1.107422 -0.212032,-0.266943 -0.523926,-0.417968 -0.865234,-0.417968 z m 0,0.464843 c 0.220629,0 0.365468,0.06978 0.501953,0.242188 v 0.002 h 0.002 c 0.127903,0.159317 0.208985,0.423209 0.208985,0.816406 0,0.392082 -0.08371,0.65909 -0.21875,0.826172 -0.142433,0.173127 -0.291775,0.244141 -0.511719,0.244141 -0.150768,0 -0.248678,-0.02661 -0.306641,-0.06055 l -0.0039,-0.002 c -0.08721,-0.05534 -0.153282,-0.113102 -0.201172,-0.171875 l -0.0293,-0.03516 c 0.115073,0.07054 0.206458,0.179688 0.347657,0.179688 0.219155,0 0.436053,-0.119483 0.544921,-0.308594 0.107926,-0.185631 0.146485,-0.410877 0.146485,-0.679687 0,-0.27067 -0.03688,-0.495481 -0.152344,-0.677735 -0.115465,-0.182253 -0.329784,-0.292968 -0.546875,-0.292968 -0.07879,0 -0.1253,0.07221 -0.199219,0.09375 0.03452,-0.03389 0.05873,-0.07124 0.105469,-0.101563 0.06579,-0.04267 0.16364,-0.07422 0.3125,-0.07422 z m -1.160156,0.04687 h 0.148437 l 0.0957,0.326172 h 0.121094 c -0.100025,0.165417 -0.139956,0.361966 -0.146484,0.603516 l -0.002,0.0039 v 0.07617 c 0,0.264098 0.03652,0.486237 0.134765,0.669922 v 0.002 l 0.002,0.0039 c 0.02934,0.05135 0.107392,0.03928 0.150391,0.07813 h -0.371094 l 0.05273,0.275391 c 0.02205,0.115749 0.03125,0.224354 0.03125,0.324219 v 0.77539 h -0.216797 z m 0.941406,0.5 c 0.09476,0 0.113835,0.0123 0.154297,0.07617 0.04046,0.06387 0.08008,0.208117 0.08008,0.429688 0,0.220373 -0.03709,0.369959 -0.08203,0.447265 h -0.002 v 0.002 c -0.03818,0.06682 -0.05048,0.07422 -0.142578,0.07422 -0.135843,0 -0.159227,-0.02172 -0.189454,-0.07422 -0.04192,-0.0798 -0.07617,-0.228192 -0.07617,-0.445312 v -0.06641 c 0.0055,-0.202218 0.04517,-0.33252 0.07813,-0.384766 0.02502,-0.03664 0.05335,-0.05859 0.179687,-0.05859 z"
           id="path358" />
      </g>
    </g>
    <g
       aria-label="dx"
       id="text4152"
       style="font-size:4.5861px;stroke:#000000;stroke-width:0.465">
      <g
         id="path334">
        <path
           style="color:#000000;fill:#000000;stroke:none;-inkscape-stroke:none"
           d="m 66.877854,57.195855 q -0.45861,0 -0.733776,-0.316441 -0.275166,-0.321027 -0.275166,-0.953909 0,-0.632882 0.275166,-0.953909 0.279752,-0.325613 0.738362,-0.325613 0.284338,0 0.463196,0.105481 0.183444,0.10548 0.298097,0.256821 h 0.02752 q -0.0046,-0.05962 -0.01834,-0.174272 -0.0092,-0.119238 -0.0092,-0.18803 v -0.981425 h 0.403576 v 3.485436 h -0.325613 l -0.05962,-0.330199 h -0.01834 q -0.110067,0.155927 -0.293511,0.265993 -0.183444,0.110067 -0.472368,0.110067 z m 0.06421,-0.334785 q 0.389819,0 0.545746,-0.210961 0.160514,-0.215547 0.160514,-0.64664 v -0.07338 q 0,-0.45861 -0.151342,-0.701673 -0.151341,-0.247649 -0.559504,-0.247649 -0.325613,0 -0.490713,0.261407 -0.160513,0.256822 -0.160513,0.692501 0,0.440266 0.160513,0.683329 0.1651,0.243064 0.495299,0.243064 z"
           id="path341" />
        <path
           style="color:#000000;fill:#000000;stroke:none;-inkscape-stroke:none"
           d="m 67.412109,53.431641 v 1.107421 c -0.156163,-0.08008 -0.330078,-0.125 -0.529297,-0.125 -0.360764,0 -0.688589,0.141542 -0.916015,0.40625 -0.232575,0.271338 -0.330078,0.649853 -0.330078,1.105469 0,0.455617 0.0975,0.834132 0.330078,1.105469 h 0.002 c 0.225411,0.259223 0.548988,0.396484 0.908203,0.396484 0.22214,0 0.425277,-0.04149 0.59375,-0.142578 0.01355,-0.0081 0.02004,-0.02273 0.0332,-0.03125 l 0.02344,0.128906 h 0.751953 v -3.951171 z m -0.474609,1.78125 c 0.225086,0 0.308929,0.05098 0.361328,0.136718 v 0.002 c 0.06621,0.106346 0.117188,0.297961 0.117188,0.578125 v 0.07422 c 0,0.258539 -0.05257,0.423667 -0.115235,0.507813 -0.0489,0.06616 -0.141437,0.117187 -0.359375,0.117187 -0.161815,0 -0.231718,-0.038 -0.300781,-0.138672 v -0.002 c -0.07106,-0.108305 -0.121094,-0.28837 -0.121094,-0.552734 0,-0.261044 0.04973,-0.447223 0.125,-0.56836 2.47e-4,-3.97e-4 -2.47e-4,-0.0016 0,-0.002 0.07253,-0.113772 0.139338,-0.152343 0.292969,-0.152343 z m 0.789062,0.02734 h 0.08789 v 0.394532 c -0.0195,-0.139285 -0.03586,-0.281332 -0.08789,-0.394532 z m 0.08789,1.015625 v 0.332032 h -0.08789 c 0.04432,-0.09922 0.07113,-0.212445 0.08789,-0.332032 z"
           id="path343" />
      </g>
      <g
         id="path336">
        <path
           style="color:#000000;fill:#000000;stroke:none;-inkscape-stroke:none"
           d="m 69.069091,57.25043 -0.551478,-0.781013 h 0.298096 l 0.411374,0.602155 0.408392,-0.602155 h 0.295115 l -0.551478,0.781013 0.581288,0.816784 h -0.298097 l -0.43522,-0.637927 -0.441183,0.637927 h -0.295116 z"
           id="path347" />
        <path
           style="color:#000000;fill:#000000;stroke:none;-inkscape-stroke:none"
           d="M 68.068359,56.236328 68.783203,57.25 68.041016,58.298828 h 0.867187 l 0.318359,-0.458984 0.3125,0.458984 h 0.873047 L 69.664062,57.25 70.378906,56.236328 H 69.511719 L 69.226562,56.658203 68.9375,56.236328 Z"
           id="path349" />
      </g>
    </g>
    <g
       aria-label="dy"
       id="text4152-3"
       style="font-size:4.5861px;stroke:#000000;stroke-width:0.465">
      <g
         id="path317">
        <path
           style="color:#000000;fill:#000000;stroke:none;-inkscape-stroke:none"
           d="m 75.344605,46.612519 q -0.45861,0 -0.733776,-0.316441 -0.275166,-0.321027 -0.275166,-0.953909 0,-0.632882 0.275166,-0.953909 0.279752,-0.325613 0.738362,-0.325613 0.284338,0 0.463196,0.105481 0.183444,0.10548 0.298097,0.256821 H 76.138 q -0.0046,-0.05962 -0.01834,-0.174272 -0.0092,-0.119238 -0.0092,-0.18803 v -0.981425 h 0.403576 v 3.485436 h -0.325613 l -0.05962,-0.330199 h -0.01834 q -0.110067,0.155927 -0.293511,0.265994 -0.183444,0.110066 -0.472368,0.110066 z m 0.06421,-0.334785 q 0.389819,0 0.545746,-0.210961 0.160514,-0.215547 0.160514,-0.64664 v -0.07338 q 0,-0.45861 -0.151342,-0.701673 -0.151341,-0.247649 -0.559504,-0.247649 -0.325613,0 -0.490712,0.261407 -0.160514,0.256822 -0.160514,0.692501 0,0.440266 0.160514,0.683329 0.165099,0.243064 0.495298,0.243064 z"
           id="path324" />
        <path
           style="color:#000000;fill:#000000;stroke:none;-inkscape-stroke:none"
           d="m 75.878906,42.849609 v 1.107422 c -0.156171,-0.08009 -0.330063,-0.126953 -0.529297,-0.126953 -0.360764,0 -0.688589,0.141541 -0.916015,0.40625 -0.232575,0.271337 -0.330078,0.649852 -0.330078,1.105469 0,0.455616 0.0975,0.834131 0.330078,1.105469 h 0.002 v 0.002 c 0.225411,0.259223 0.548988,0.396484 0.908203,0.396484 0.22214,0 0.425277,-0.04345 0.59375,-0.144531 0.01319,-0.0079 0.02038,-0.02101 0.0332,-0.0293 l 0.02344,0.126953 h 0.751953 v -3.949219 z m -0.474609,1.78125 c 0.225086,0 0.308929,0.04902 0.361328,0.134766 v 0.002 c 0.06621,0.106345 0.117187,0.299914 0.117187,0.580078 v 0.07227 c 0,0.258538 -0.05257,0.423666 -0.115234,0.507812 -0.0489,0.06616 -0.141437,0.117188 -0.359375,0.117188 -0.161815,0 -0.231719,-0.038 -0.300781,-0.138672 v -0.002 c -0.07106,-0.108306 -0.121094,-0.288371 -0.121094,-0.552735 0,-0.261043 0.04973,-0.447223 0.125,-0.568359 2.47e-4,-3.97e-4 -2.47e-4,-0.0016 0,-0.002 0.07253,-0.113769 0.13934,-0.150391 0.292969,-0.150391 z m 0.787109,0.02734 h 0.08984 v 0.396484 c -0.01936,-0.139877 -0.0378,-0.282845 -0.08984,-0.396484 z m 0.08984,1.013672 v 0.332031 h -0.08789 c 0.04432,-0.09922 0.07112,-0.212444 0.08789,-0.332031 z"
           id="path326" />
      </g>
      <g
         id="path319">
        <path
           style="color:#000000;fill:#000000;stroke:none;-inkscape-stroke:none"
           d="m 76.906859,45.886081 h 0.280211 l 0.345792,0.909194 q 0.04471,0.119239 0.08049,0.229534 0.03577,0.107315 0.05366,0.205687 h 0.01192 q 0.01789,-0.07452 0.05664,-0.193763 0.03875,-0.122219 0.08049,-0.244439 l 0.324925,-0.906213 h 0.283192 l -0.688603,1.818388 q -0.08347,0.226554 -0.21761,0.360697 -0.131163,0.134144 -0.363678,0.134144 -0.07154,0 -0.125201,-0.0089 -0.05366,-0.006 -0.09241,-0.0149 v -0.208668 q 0.03279,0.006 0.07751,0.01192 0.0477,0.006 0.09837,0.006 0.137124,0 0.220591,-0.0775 0.08645,-0.07751 0.134143,-0.205687 l 0.08347,-0.211648 z"
           id="path330" />
        <path
           style="color:#000000;fill:#000000;stroke:none;-inkscape-stroke:none"
           d="m 76.5625,45.654297 0.128906,0.318359 0.609375,1.517578 -0.05078,0.128907 v 0.002 c -0.02112,0.05678 -0.04624,0.08995 -0.07227,0.113281 l -0.002,0.002 c -0.0091,0.0085 -0.01489,0.01563 -0.0625,0.01563 -0.02392,0 -0.0472,-0.0013 -0.06836,-0.0039 h -0.002 c -0.02598,-0.0035 -0.04817,-0.0068 -0.06445,-0.0098 L 76.705078,47.6875 v 0.673828 l 0.179688,0.04102 c 0.03325,0.0076 0.06872,0.01312 0.105468,0.01758 0.0012,2.05e-4 0.0027,-1.99e-4 0.0039,0 0.0034,4.08e-4 0.0063,0.0016 0.0098,0.002 0.04809,0.0071 0.09786,0.0098 0.150391,0.0098 0.198833,0 0.391968,-0.0639 0.527344,-0.201172 l 0.002,-0.002 c 0.11773,-0.118377 0.205395,-0.269281 0.269531,-0.44336 l 0.808594,-2.130859 h -0.785157 l -0.304687,0.851562 -0.324219,-0.851562 z"
           id="path332" />
      </g>
    </g>
  </g>
</svg>
